<?xml version="1.0" encoding="utf-8" ?>
<svg baseProfile="full" height="200mm" version="1.1" viewBox="0,0,200,200" width="200mm" xmlns="http://www.w3.org/2000/svg" xmlns:ev="http://www.w3.org/2001/xml-events" xmlns:xlink="http://www.w3.org/1999/xlink"><defs /><rect fill="#1a1a1a" height="200" width="200" x="0" y="0" /><rect fill="#1a1a1a" height="200" width="180" x="10" y="0" /><text alignment-baseline="middle" fill="#e1ed5e" style="dominant-baseline: central; font-size:9.0px; font-family:Arial;" text-anchor="middle" x="100.0" y="100.0">2024</text><line stroke="#e1ed5e" stroke-width="0.3" x1="100.0" x2="100.0" y1="15.0" y2="10.0" /><path d="M 100.0 14.0 a86.0,86.0 0 0,1 42.35913384403234,11.155469271406648" fill="none" id="id49" stroke="none" /><text fill="#e1ed5e" style="font-size:6.75px; font-family:Arial;" text-anchor="middle"><textPath startOffset="22.145653131862478" xlink:href="#id49">January</textPath></text><line stroke="#e1ed5e" stroke-width="0.3" x1="143.13028292997686" x2="145.6673583964461" y1="26.7553504044142" y2="22.446841604673864" /><path d="M 143.63769802327073 25.89364864446614 a86.0,86.0 0 0,1 29.32050498858742,28.57503671076993" fill="none" id="id50" stroke="none" /><text fill="#e1ed5e" style="font-size:6.75px; font-family:Arial;" text-anchor="middle"><textPath startOffset="20.669276256404974" xlink:href="#id50">February</textPath></text><line stroke="#e1ed5e" stroke-width="0.3" x1="172.87174338648825" x2="177.1583165268699" y1="56.24261187166439" y2="53.66864786411523" /><path d="M 173.72905801456457 55.72781907015455 a86.0,86.0 0 0,1 12.242430191666344,42.057860355516425" fill="none" id="id51" stroke="none" /><text fill="#e1ed5e" style="font-size:6.75px; font-family:Arial;" text-anchor="middle"><textPath startOffset="22.145653131862474" xlink:href="#id51">March</textPath></text><path d="M 118.00360718960297 89.18935116829356 l 19.41739422394069 -11.659587324425345 a43.64908773049867,43.64908773049867 0 0,0 0.38021741308382856,0.645692290882451 l -19.614685347154285 11.324543865249337" fill="red" stroke="none" /><path d="M 119.58574465831526 92.42381321644754 l 9.53154474999344 -3.6870062701997197 a31.219802373706624,31.219802373706624 0 0,0 0.18905718663393214,0.5014966488914748 l -9.593432620441813 3.522841341114087" fill="red" stroke="none" /><path d="M 120.26092885502905 94.47779374421319 l 53.33457238832721 -14.536574872747252 a76.28009244634728,76.28009244634728 0 0,0 0.33349118532201505,1.26632035024009 l -53.57625305445395 13.618874018134363" fill="red" stroke="none" /><path d="M 120.35273937422433 94.82641323984039 l 28.49014689841571 -7.24208393172447 a50.39619448104547,50.39619448104547 0 0,0 0.20593438583735932,0.8402825694978925 l -28.610268810769362 6.751945537618482" fill="red" stroke="none" /><path d="M 120.43855184770803 95.1765574152323 l 27.848244078818954 -6.572109775763957 a49.61323688746464,49.61323688746464 0 0,0 0.188504639361248,0.8305862224658275 l -27.95695957973787 6.093089219359103" fill="red" stroke="none" /><path d="M 120.51834098615036 95.52812308129327 l 11.709382099191018 -2.5520053291362315 a32.98425468457654,32.98425468457654 0 0,0 0.11582544986632272,0.5542667068952092 l -11.751465259881709 2.350622170955618" fill="red" stroke="none" /><path d="M 120.592083275326 95.88100663000786 l 24.10350113021716 -4.821375283962894 a45.58097692043968,45.58097692043968 0 0,0 0.14688731950512318,0.7685765243239705 l -24.182714742004443 4.406896194605609" fill="red" stroke="none" /><path d="M 120.65975698304385 96.23510406497455 l 16.790662677472387 -3.059818066237764 a38.06718605239713,38.06718605239713 0 0,0 0.11163688574256903,0.6438918906152143 l -16.84071438070719 2.7711331427019568" fill="red" stroke="none" /><path d="M 120.77682067341334 96.94652285012252 l 21.372690166532195 -3.1410494454730156 a42.602270171754824,42.602270171754824 0 0,0 0.10012645905582895,0.7244651797882092 l -21.423461142143235 2.773695957484721" fill="red" stroke="none" /><path d="M 120.82617615685814 97.30363454192243 l 21.025934699343793 -2.7222282007076855 a42.201425809548695,42.201425809548695 0 0,0 0.08685036096934663,0.7192455780992836 l -21.0695671465728 2.360888945684989" fill="red" stroke="none" /><path d="M 120.96210409425399 98.7389718711861 l 38.62626955762672 -2.3236604590980696 a59.69609925906766,59.69609925906766 0 0,0 0.05275546275671265,1.023441883745086 l -38.66046660984001 1.660246781976253" fill="red" stroke="none" /><path d="M 120.98066250479742 99.09900007780936 l 20.05286149706362 -0.8611561548365173 a41.07134385494478,41.07134385494478 0 0,0 0.024203368365000935,0.704654661755692 l -20.06468955242547 0.5167952285167053" fill="red" stroke="none" /><line stroke="#e1ed5e" stroke-width="0.3" x1="184.99686870605535" x2="189.99668451229388" y1="99.2704041080226" y2="99.22748670261217" /><path d="M 185.99683186730306 99.26182062694052 a86.0,86.0 0 0,1 -10.086455211305974,41.156179273409016" fill="none" id="id52" stroke="none" /><text fill="#e1ed5e" style="font-size:6.75px; font-family:Arial;" text-anchor="middle"><textPath startOffset="21.40746469413373" xlink:href="#id52">April</textPath></text><path d="M 120.99922638620191 99.81974689727618 l 26.524117191181503 -0.22767764548995065 a47.52509434256146,47.52509434256146 0 0,0 0.0,0.8158614964275518 l -26.524117191181503 -0.22767764548994743" fill="red" stroke="none" /><path d="M 120.99303781780057 100.54070618675476 l 10.397528494254484 0.2678034514392763 a31.40097675593195,31.40097675593195 0 0,0 -0.01850461504568702,0.5387416767490598 l -10.391399192211951 -0.4462513927524468" fill="red" stroke="none" /><path d="M 120.77682067341334 103.0534771498775 l 11.822201230141182 1.7374564609725291 a32.94919231076841,32.94919231076841 0 0,0 -0.08704628688812859,0.5588996046147183 l -11.790633451114786 -1.940144247518698" fill="red" stroke="none" /><line stroke="#e1ed5e" stroke-width="0.3" x1="174.33088141563837" x2="178.70328620479359" y1="141.23008692659167" y2="143.65538615756765" /><path d="M 175.20536237346943 141.71514677278685 a86.0,86.0 0 0,1 -30.301960400862466,31.631185727798858" fill="none" id="id53" stroke="none" /><text fill="#e1ed5e" style="font-size:6.75px; font-family:Arial;" text-anchor="middle"><textPath startOffset="22.145653131862474" xlink:href="#id53">May</textPath></text><line stroke="#e1ed5e" stroke-width="0.3" x1="143.1302829299769" x2="145.66735839644613" y1="173.24464959558577" y2="177.55315839532614" /><path d="M 143.63769802327073 174.10635135553383 a86.0,86.0 0 0,1 -40.68552437913181,11.842963189579606" fill="none" id="id54" stroke="none" /><text fill="#e1ed5e" style="font-size:6.75px; font-family:Arial;" text-anchor="middle"><textPath startOffset="21.407464694133747" xlink:href="#id54">June</textPath></text><path d="M 107.06938296918513 119.77432235084164 l 4.90203132906629 13.71185407515912 a35.56175996676244,35.56175996676244 0 0,0 -0.5765987621239537,0.20057098052775685 l -4.665926794897315 -13.793983488255467" fill="red" stroke="none" /><line stroke="#e1ed5e" stroke-width="0.3" x1="101.45913802915013" x2="101.54496967792366" y1="184.9874750549273" y2="189.98673829345242" /><path d="M 101.47630435890484 185.9873277026323 a86.0,86.0 0 0,1 -42.54439059252881,-10.42667462771756" fill="none" id="id55" stroke="none" /><text fill="#e1ed5e" style="font-size:6.75px; font-family:Arial;" text-anchor="middle"><textPath startOffset="22.145653131862474" xlink:href="#id55">July</textPath></text><path d="M 95.00130118170881 120.39639698878247 l -6.9012631362278825 28.15950865762965 a49.99285016542142,49.99285016542142 0 0,0 -0.8317732011607141,-0.21143349511125414 l 7.383641630613976 -28.03688993068313" fill="red" stroke="none" /><path d="M 93.61358852112213 120.00534299687104 l -7.1113281247204565 22.276134065092382 a44.383693818201806,44.383693818201806 0 0,0 -0.7238288548542153,-0.23793692165847385 l 7.4926797172224155 -22.150776222031887" fill="red" stroke="none" /><path d="M 92.25597844496254 119.51999308798841 l -8.287201928334666 20.889162460379328 a43.47297986687824,43.47297986687824 0 0,0 -0.6913146516810367,-0.28115165049495094 l 8.644571041206143 -20.743823553305084" fill="red" stroke="none" /><path d="M 90.93487009805054 118.94263497670748 l -10.957171617776352 22.896274469055474 a46.38304541271053,46.38304541271053 0 0,0 -0.7152701840437282,-0.3498744896617983 l 11.34860205108215 -22.70480622929645" fill="red" stroke="none" /><path d="M 90.6110303473126 118.78422872680471 l -6.699303492231293 13.403094669960375 a35.984112052869285,35.984112052869285 0 0,0 -0.5501675633802148,-0.28091947796102723 l 6.92839827732509 -13.28611724032651" fill="red" stroke="none" /><line stroke="#e1ed5e" stroke-width="0.3" x1="58.13341422392154" x2="55.67067388415222" y1="173.97424548756322" y2="178.32567169271397" /><path d="M 57.64086615596768 174.84453072859336 a86.0,86.0 0 0,1 -31.369924170532247,-30.572349798747897" fill="none" id="id56" stroke="none" /><text fill="#e1ed5e" style="font-size:6.75px; font-family:Arial;" text-anchor="middle"><textPath startOffset="22.145653131862474" xlink:href="#id56">August</textPath></text><line stroke="#e1ed5e" stroke-width="0.3" x1="26.387840678322732" x2="22.057713659400548" y1="142.50000000000003" y2="145.00000000000006" /><path d="M 25.521815274538298 143.00000000000003 a86.0,86.0 0 0,1 -11.493303480769221,-40.785679425670985" fill="none" id="id57" stroke="none" /><text fill="#e1ed5e" style="font-size:6.75px; font-family:Arial;" text-anchor="middle"><textPath startOffset="21.40746469413373" xlink:href="#id57">September</textPath></text><path d="M 79.83685265289637 105.86919833188381 l -9.731492039876606 2.8326955045234463 a31.135388554146758,31.135388554146758 0 0,0 -0.14497453536516602,-0.5144634816423947 l 9.778685067316347 -2.665224098978056" fill="red" stroke="none" /><path d="M 79.34024301695615 103.76489593502545 l -21.098377191158846 3.844827148151897 a42.44584379080426,42.44584379080426 0 0,0 -0.12447785888346634,-0.7179552113360893 l 21.161269867534546 -3.482078903895215" fill="red" stroke="none" /><path d="M 79.06263194458094 101.62068470465958 l -22.366529102107208 1.7313108083194024 a43.43343623233882,43.43343623233882 0 0,0 -0.05116053168465518,-0.7438629025016028 l 22.39295359495693 -1.3471044816634563" fill="red" stroke="none" /><line stroke="#e1ed5e" stroke-width="0.3" x1="15.003131293944662" x2="10.003315487706104" y1="100.72959589197737" y2="100.7725132973878" /><path d="M 14.003168132696942 100.73817937305945 a86.0,86.0 0 0,1 10.791469493833604,-42.45332614584628" fill="none" id="id58" stroke="none" /><text fill="#e1ed5e" style="font-size:6.75px; font-family:Arial;" text-anchor="middle"><textPath startOffset="22.145653131862435" xlink:href="#id58">October</textPath></text><path d="M 79.00077361379809 99.81974689727619 l -35.52485962835118 -0.3049381941063225 a56.52616836806751,56.52616836806751 0 0,0 0.016657907591005067,-0.9702396055582158 l 35.51439028916151 0.9147247156335907" fill="red" stroke="none" /><path d="M 79.00696218219943 99.45929381324524 l -58.22161317173779 -1.499582229023934 a79.24092192935373,79.24092192935373 0 0,0 0.04669672435875659,-1.3595241791099204 l 58.18729176038219 2.498812672697993" fill="red" stroke="none" /><path d="M 79.01933749520258 99.09900007780938 l -62.941987514392274 -2.7029997665718684 a84.0,84.0 0 0,0 0.07423364217371864,-1.440112826493152 l 62.886312282761985 3.7830843864417325" fill="red" stroke="none" /><path d="M 79.83685265289637 94.1308016681162 l -52.64195126813144 -15.32330480213483 a75.82680643057239,75.82680643057239 0 0,0 0.37452549549292413,-1.2466735666800839 l 52.37114945263489 16.224715972405637" fill="red" stroke="none" /><path d="M 80.05021161711548 93.44210830539832 l -9.880726512667598 -3.2479910608798446 a31.400875076150456,31.400875076150456 0 0,0 0.1727266117466834,-0.5106355361214958 l 9.82351447934855 3.417128271475502" fill="red" stroke="none" /><path d="M 80.9802524753101 91.09779779509293 l -10.782785606956583 -5.046888118818715 a32.90544182840198,32.90544182840198 0 0,0 0.24384615592824274,-0.5095446807914696 l 10.694560193068435 5.231245301675272" fill="red" stroke="none" /><path d="M 81.1358732173502 90.77261029715801 l -10.476826648066451 -5.124740914047721 a32.66305560518983,32.66305560518983 0 0,0 0.2506968636768633,-0.5015616625250059 l 10.387309871177843 5.3038344327364975" fill="red" stroke="none" /><path d="M 81.29705330413844 90.45014215332179 l -9.00452391745692 -4.597774072026589 a31.110439030895428,31.110439030895428 0 0,0 0.24694567414749322,-0.4735508911854543 l 8.924270174334486 4.75167120631653" fill="red" stroke="none" /><line stroke="#e1ed5e" stroke-width="0.3" x1="26.387840678322718" x2="22.05771365940052" y1="57.49999999999999" y2="54.99999999999999" /><path d="M 25.521815274538284 56.99999999999999 a86.0,86.0 0 0,1 29.574782752854787,-30.34633250058573" fill="none" id="id59" stroke="none" /><text fill="#e1ed5e" style="font-size:6.75px; font-family:Arial;" text-anchor="middle"><textPath startOffset="21.40746469413373" xlink:href="#id59">November</textPath></text><path d="M 85.08716467003674 85.21462403516908 l -31.744537629315207 -31.47321842521172 a65.70211569199041,65.70211569199041 0 0,0 0.8009653562716479,-0.7941195396616916 l 31.199580352913582 32.01351797510208" fill="red" stroke="none" /><path d="M 85.34317274990677 84.96080404539775 l -26.77498534213677 -27.473493708499323 a59.36264715348239,59.36264715348239 0 0,0 0.7358919221867319,-0.7049678149061515 l 26.299420934084736 27.92907365371104" fill="red" stroke="none" /><line stroke="#e1ed5e" stroke-width="0.3" x1="56.869717070023135" x2="54.33264160355391" y1="26.7553504044142" y2="22.446841604673864" /><path d="M 56.362301976729285 25.89364864446614 a86.0,86.0 0 0,1 42.16139366436587,-11.88097634709845" fill="none" id="id60" stroke="none" /><text fill="#e1ed5e" style="font-size:6.75px; font-family:Arial;" text-anchor="middle"><textPath startOffset="22.145653131862474" xlink:href="#id60">December</textPath></text><path d="M 90.28995756902619 81.37971332152246 l -5.311022812547181 -10.184586527666143 a32.48619893850508,32.48619893850508 0 0,0 0.4966873404357667,-0.2536120950639206 l 5.135408250397832 10.274256574402898" fill="red" stroke="none" /><path d="M 91.26138138417902 80.90454125486306 l -9.314085679200632 -20.352958133891185 a43.38291975680156,43.38291975680156 0 0,0 0.679844639854932,-0.3040858601323973 l 8.963327636490082 20.50984774493343" fill="red" stroke="none" /><path d="M 91.5904679813234 80.7573450057729 l -16.784377151232473 -38.4059396048273 a62.91338107674513,62.91338107674513 0 0,0 0.9933271651183342,-0.42399229990465637 l 16.122614910943707 38.688406554391364" fill="red" stroke="none" /><path d="M 91.92203290615298 80.6158196554323 l -5.735162859302838 -13.762303049596701 a35.909496244060875,35.909496244060875 0 0,0 0.5710388605525119,-0.23223653332197822 l 5.498069537559886 13.85872683949797" fill="red" stroke="none" /><path d="M 92.93061703081487 80.22567764915836 l -3.6903298262198323 -10.322509316963478 a31.962332453683636,31.962332453683636 0 0,0 0.5182376053551386,-0.18026994069420235 l 3.512586448819689 10.384337690226266" fill="red" stroke="none" /><path d="M 93.95794788825049 79.88797359093562 l -7.115503258001649 -23.68519615387353 a45.73093009698781,45.73093009698781 0 0,0 0.753776360835627,-0.21941331298486502 l 6.707866884784398 23.803853161160916" fill="red" stroke="none" /><path d="M 96.05791012581881 79.37332000966035 l -2.4453217584283156 -12.794956734717314 a34.02653124763192,34.02653124763192 0 0,0 0.5746680367273947,-0.10472365949124031 l 2.2253189881498825 12.835048568139914" fill="red" stroke="none" /><path d="M 96.41257539226777 79.30868818359171 l -3.08727188570305 -17.806563826157696 a39.07221522092077,39.07221522092077 0 0,0 0.6618507599825556,-0.10890729069137836 l 2.7811436226674213 17.856937115344742" fill="red" stroke="none" /><path d="M 97.12497278360702 79.19773525538626 l -1.4950298307850325 -10.817291107283314 a31.920114518385226,31.920114518385226 0 0,0 0.543435660386113,-0.07035862619793615 l 1.3091163485081254 10.841361329681645" fill="red" stroke="none" /></svg>