<?xml version="1.0" encoding="utf-8" ?>
<svg baseProfile="full" height="200mm" version="1.1" viewBox="0,0,200,200" width="200mm" xmlns="http://www.w3.org/2000/svg" xmlns:ev="http://www.w3.org/2001/xml-events" xmlns:xlink="http://www.w3.org/1999/xlink"><defs /><rect fill="#1a1a1a" height="200" width="200" x="0" y="0" /><rect fill="#1a1a1a" height="200" width="180" x="10" y="0" /><text alignment-baseline="middle" fill="#e1ed5e" style="dominant-baseline: central; font-size:9.0px; font-family:Arial;" text-anchor="middle" x="100.0" y="100.0">2023</text><line stroke="#e1ed5e" stroke-width="0.3" x1="100.0" x2="100.0" y1="15.0" y2="10.0" /><path d="M 100.0 14.0 a86.0,86.0 0 0,1 42.46469731375804,11.215312516191453" fill="none" id="id37" stroke="none" /><text fill="#e1ed5e" style="font-size:6.75px; font-family:Arial;" text-anchor="middle"><textPath startOffset="22.20632615414155" xlink:href="#id37">January</textPath></text><path d="M 110.36928655335952 81.73862282372117 l 31.107859660078564 -54.7841315288365 a84.0,84.0 0 0,0 1.2512130701386868,0.7247833704398019 l -32.04626946268258 54.24054400100664" fill="#4dd2ff" stroke="none" /><line stroke="#e1ed5e" stroke-width="0.3" x1="143.23703022742887" x2="145.7803849466894" y1="26.81831364943548" y2="22.513508569990506" /><path d="M 143.74570117128098 25.957352633546492 a86.0,86.0 0 0,1 28.547481713284135,27.462654790039103" fill="none" id="id38" stroke="none" /><text fill="#e1ed5e" style="font-size:6.75px; font-family:Arial;" text-anchor="middle"><textPath startOffset="19.985693538727396" xlink:href="#id38">February</textPath></text><path d="M 115.4437574822437 85.77008943001954 l 1.0065646282146146 -0.9274507618283763 a22.36869911462997,22.36869911462997 0 0,0 0.2584717662529245,0.2854109800081527 l -1.0223800350835746 0.9099869945506746" fill="#ff0f01" stroke="none" /><path d="M 115.68641384162765 86.03803664274999 l 0.29883594866082785 -0.26598409344264723 a21.40006307274794,21.40006307274794 0 0,0 0.2425423395838688,0.27726782182716475 l -0.3033701518225449 0.2608007154125347" fill="#ff0100" stroke="none" /><path d="M 115.9244219780498 86.31012108654704 l 1.3019205850067694 -1.1192327852302513 a22.716880670634577,22.716880670634577 0 0,0 0.2523622454827955,0.29871729950187037 l -1.3209934439766822 1.0966565360992744" fill="#ff1402" stroke="none" /><path d="M 116.15771136456269 86.58626213691792 l 2.7889282141752836 -2.315300177099887 a24.624739369099757,24.624739369099757 0 0,0 0.26794238466974835,0.3284656817409271 l -2.8283690909214405 2.266950325750859" fill="#ff2f04" stroke="none" /><path d="M 116.38621287248628 86.86637796730983 l 0.2536524708298453 -0.20330357633341833 a21.325072176767012,21.325072176767012 0 0,0 0.22710787492253023,0.2884039379858223 l -0.25711442634633963 0.19890724439455768" fill="#ff0000" stroke="none" /><path d="M 116.60985879189232 87.15038557335679 l 0.29145826614826553 -0.22547610960372866 a21.36849341501333,21.36849341501333 0 0,0 0.22256207766790534,0.29286560577746285 l -0.29529628404028435 0.22042572794523224" fill="#ff0100" stroke="none" /><path d="M 116.82858285166822 87.43820079747576 l 0.5405842963797308 -0.4035224738182201 a21.674582662368923,21.674582662368923 0 0,0 0.22060327014819914,0.3009026125632022 l -0.5474501790415564 0.3941574175835242" fill="#ff0500" stroke="none" /><path d="M 117.04232023915458 87.72973835380427 l 0.29114627061711384 -0.2096217456105798 a21.358758173603167,21.358758173603167 0 0,0 0.21225253749960227,0.3002161618413983 l -0.294711427920599 0.20457908343738831" fill="#ff0100" stroke="none" /><path d="M 117.2510076193507 88.02491185347247 l 0.9957279826253055 -0.6912019648363511 a22.21211978433515,22.21211978433515 0 0,0 0.21532591208219654,0.31596420615862425 l -1.0074783603762354 0.6739597354073203" fill="#ff0d01" stroke="none" /><path d="M 117.45458315368197 88.32363383020206 l 0.7085675036106078 -0.474001215344511 a21.852493436526665,21.852493436526665 0 0,0 0.20645753445836915,0.3144489892173714 l -0.7166216734269019 0.4617341621494656" fill="#ff0801" stroke="none" /><path d="M 117.65298651832404 88.62581576622439 l 4.403521095887157 -2.837279695985015 a26.23843050113028,26.23843050113028 0 0,0 0.24135908050651286,0.38177210285274654 l -4.451707772639626 2.7610599454180624" fill="#ff4606" stroke="none" /><line stroke="#e1ed5e" stroke-width="0.3" x1="172.23445277983987" x2="176.4835382374775" y1="55.19839476539836" y2="52.563006222186495" /><path d="M 173.08426987136738 54.67131705675599 a86.0,86.0 0 0,1 12.851231095245387,41.99856678651699" fill="none" id="id39" stroke="none" /><text fill="#e1ed5e" style="font-size:6.75px; font-family:Arial;" text-anchor="middle"><textPath startOffset="22.20632615414155" xlink:href="#id39">March</textPath></text><path d="M 117.84615892207809 88.93136811851018 l 0.4640307127778822 -0.2878033958943156 a21.546035985159815,21.546035985159815 0 0,0 0.19276951291276403,0.3168623938979648 l -0.4689160239768702 0.27977322878926936" fill="#ff0300" stroke="none" /><path d="M 118.03404312379186 89.2402003453031 l 0.9587760230266794 -0.5720424338946033 a22.116460482286282,22.116460482286282 0 0,0 0.19224504266669903,0.32860909506356273 l -0.9684807401637058 0.5554539264771453" fill="#ff0c01" stroke="none" /><path d="M 118.21658344932153 89.55222093294921 l 0.8753823512669282 -0.5020590952565778 a22.009137055131497,22.009137055131497 0 0,0 0.18565478338400518,0.3302591437227192 l -0.8838947759433664 0.48691644159906466" fill="#ff0a01" stroke="none" /><path d="M 118.3937258080291 89.86733742301442 l 1.6513547610140245 -0.9096917483107081 a22.885341248598852,22.885341248598852 0 0,0 0.18710608280980992,0.3466791549573994 l -1.6667689430422992 0.8811316100208499" fill="#ff1702" stroke="none" /><path d="M 118.56541770881063 90.18545643968196 l 0.5741269206196449 -0.303510201599108 a21.649415247322487,21.649415247322487 0 0,0 0.1713299329383116,0.3309548972144439 l -0.5792662867180729 0.2935825821243193" fill="#ff0500" stroke="none" /><path d="M 118.73160827565052 90.50648371742162 l 0.6752693291566105 -0.34223865228953154 a21.7570442272553,21.7570442272553 0 0,0 0.16643101442087704,0.3355147693143287 l -0.6810603565308957 0.3305642944762529" fill="#ff0701" stroke="none" /><path d="M 120.87857604477298 97.74499172005257 l 0.5516410071594432 -0.05958045395603075 a21.554849196875594,21.554849196875594 0 0,0 0.036666722323738146,0.3692288899091433 l -0.5525848551654101 0.05007603334245249" fill="#ff0400" stroke="none" /><path d="M 120.91429891909075 98.10471618934814 l 3.1300488983565637 -0.28364952736660054 a24.142874983272232,24.142874983272232 0 0,0 0.03394432599821522,0.4142067550031289 l -3.134467708174274 0.22972885515570285" fill="#ff2903" stroke="none" /><path d="M 120.98425023603335 99.18683210126433 l 3.8765402550363337 -0.1502211448155129 a24.879449798781632,24.879449798781632 0 0,0 0.012899764342122588,0.4280803775209954 l -3.8785517138341015 0.08347061986951841" fill="#ff3304" stroke="none" /><line stroke="#e1ed5e" stroke-width="0.3" x1="184.98032266829074" x2="189.97916517819016" y1="98.17113171792111" y2="98.06355123074" /><path d="M 185.9800911702706 98.14961562048488 a86.0,86.0 0 0,1 -9.607161424134198,41.387399972396054" fill="none" id="id40" stroke="none" /><text fill="#e1ed5e" style="font-size:6.75px; font-family:Arial;" text-anchor="middle"><textPath startOffset="21.466115282336823" xlink:href="#id40">April</textPath></text><path d="M 120.99513854157772 99.54816195383933 l 35.652765672847764 -0.767286005278872 a56.66102112863411,56.66102112863411 0 0,0 0.01259221820525258,0.9752811771081557 l -35.66069089817073 0.1534685701102536" fill="#4eff2b" stroke="none" /><path d="M 120.5718875245553 104.21870165774334 l 1.138733901911063 0.23352152756943423 a22.162431590761347,22.162431590761347 0 0,0 -0.0798543662151775,0.37305301406993646 l -1.1345454969714424 -0.2530883610555397" fill="#ff0c01" stroke="none" /><path d="M 120.49622156327973 104.57218783832717 l 1.2017266025226567 0.26807476393073804 a22.23126394662849,22.23126394662849 0 0,0 -0.08653194922123417,0.3727773724935587 l -1.1969340873708698 -0.28872079377286164" fill="#ff0d01" stroke="none" /><path d="M 120.41448212921028 104.9243191809786 l 5.953324214278673 1.4360427285593307 a27.124074454035068,27.124074454035068 0 0,0 -0.11338984987060254,0.45293608538773217 l -5.92772305011301 -1.5383066533444587" fill="#ff5207" stroke="none" /><path d="M 120.32669344350535 105.2749913415812 l 2.816985238211193 0.731037381078522 a23.910295772740962,23.910295772740962 0 0,0 -0.10681289722275723,0.3974905259389634 l -2.8039842646466586 -0.7794188401930336" fill="#ff2503" stroke="none" /><path d="M 120.23288151984713 105.62410040840565 l 2.9645298929310946 0.8240454413381315 a24.076928399471168,24.076928399471168 0 0,0 -0.11443117787778116,0.398349942152747 l -2.949906078167214 -0.8749528589954605" fill="#ff2803" stroke="none" /><path d="M 120.13307415673323 105.97154293290107 l 2.949965279318876 0.8749704182721054 a24.07699014981169,24.07699014981169 0 0,0 -0.12127147411826829,0.39632219413903363 l -2.9344670326944753 -0.9256195849631962" fill="#ff2803" stroke="none" /><path d="M 120.02730092923936 106.31721596034902 l 3.1023520918369827 0.9785756062896039 a24.253029160482637,24.253029160482637 0 0,0 -0.12901196635975412,0.3970580049640257 l -3.0850478744609817 -1.0318325112314248" fill="#ff2a04" stroke="none" /><path d="M 119.9155931802556 106.66101706037122 l 0.3144389788505656 0.10516801501276912 a21.331560225000395,21.331560225000395 0 0,0 -0.1194660510831774,0.34722426526665146 l -0.3125820968241574 -0.11056498336872095" fill="#ff0000" stroke="none" /><path d="M 119.79798401119884 107.00284435728193 l 0.7280338567481945 0.2575165119213858 a21.77223574799656,21.77223574799656 0 0,0 -0.12801632850249026,0.3522459552135093 l -0.7234932672404776 -0.27001026414102625" fill="#ff0701" stroke="none" /><path d="M 119.54520255179757 107.68017299344265 l 1.820160286649608 0.7152213357838796 a22.955639288891707,22.955639288891707 0 0,0 -0.14767842171331239,0.3665257316732255 l -1.8075792506789032 -0.7464464352999186" fill="#ff1802" stroke="none" /><path d="M 119.41010516605496 108.01547362559984 l 2.9302316431199884 1.2100498297866786 a24.17024889762751,24.17024889762751 0 0,0 -0.16211218293183388,0.383185313286168 l -2.908968478995846 -1.26030966873901" fill="#ff2904" stroke="none" /><line stroke="#e1ed5e" stroke-width="0.3" x1="174.80103733775053" x2="179.2010983576182" y1="140.37084112569926" y2="142.7455964860345" /><path d="M 175.68104954172406 140.8457921977663 a86.0,86.0 0 0,1 -30.038265399797805,32.042727171017184" fill="none" id="id41" stroke="none" /><text fill="#e1ed5e" style="font-size:6.75px; font-family:Arial;" text-anchor="middle"><textPath startOffset="22.206326154141568" xlink:href="#id41">May</textPath></text><path d="M 117.55443506779139 111.5257021239791 l 0.29797340224053287 0.1956401708075635 a21.35645928922727,21.35645928922727 0 0,0 -0.20440866650271622,0.3055632218894898 l -0.2945616303270956 -0.20074030690286018" fill="#ff0100" stroke="none" /><path d="M 117.35343817320211 111.8261652097733 l 0.5347204927170104 0.36440576356148546 a21.647083893980025,21.647083893980025 0 0,0 -0.21249096364238926,0.3061090814518098 l -0.528368621912485 -0.37355610720031485" fill="#ff0500" stroke="none" /><path d="M 117.14729908036423 112.12312394758627 l 0.3089699244903233 0.2184414392679384 a21.378390111695595,21.378390111695595 0 0,0 -0.21502609514608112,0.29865243944415837 l -0.3051640369686394 -0.22372748416322794" fill="#ff0100" stroke="none" /><path d="M 116.71984013943494 112.70617746262583 l 1.215128969068734 0.9234325323810603 a22.52619332108673,22.52619332108673 0 0,0 -0.23726859031677444,0.30670163711227466 l -1.1990535615338909 -0.9442121636065877" fill="#ff1201" stroke="none" /><path d="M 116.27256486870786 113.27417163493432 l 1.609391777391506 1.3128442168344694 a23.076945312426666,23.076945312426666 0 0,0 -0.2537409039465362,0.3056472647072676 l -1.5865548735514263 -1.3403527386555074" fill="#ff1902" stroke="none" /><path d="M 116.0416608686014 113.55231037782055 l 3.7245915364056956 3.146608131504176 a25.875830682695323,25.875830682695323 0 0,0 -0.29037301530740106,0.3377694175402658 l -3.6698760115275157 -3.2102546482059697" fill="#ff4106" stroke="none" /><path d="M 115.56566222782051 114.09645910891815 l 0.5022990632337905 0.4548883370132365 a21.677663447498986,21.677663447498986 0 0,0 -0.2528581679868913,0.27442760125507504 l -0.4943944872511772 -0.46346719306964634" fill="#ff0500" stroke="none" /><path d="M 112.92097659922987 116.55440617244103 l 0.19207629108114543 0.2460889015806137 a21.31217470922008,21.31217470922008 0 0,0 -0.2911357455906081,0.22323047505381416 l -0.1878118169970436 -0.2493587184617993" fill="#ff0000" stroke="none" /><path d="M 112.34349029814194 116.9893568818739 l 0.33741289215963854 0.4644090045024161 a21.574041098927992,21.574041098927992 0 0,0 -0.3023167011085489,0.21569493923469416 l -0.32936886320220504 -0.4701482055813295" fill="#ff0400" stroke="none" /><path d="M 112.04921762599082 117.19931262002967 l 0.9323674411446955 1.330881356345829 a22.624978224461984,22.624978224461984 0 0,0 -0.3208901904625326,0.22071119903310552 l -0.9093203660592797 -1.3467333447440286" fill="#ff1302" stroke="none" /><path d="M 111.45004920935366 117.60387380957326 l 0.509822328002459 0.7838261446183572 a21.935041299150537,21.935041299150537 0 0,0 -0.3182860122239671,0.2031451921827921 l -0.4962545137315614 -0.7924857656249581" fill="#ff0901" stroke="none" /><path d="M 111.1453310114006 117.79835938074945 l 0.23198574741324965 0.3704659556050198 a21.43710686481137,21.43710686481137 0 0,0 -0.3144321336969426,0.19314989793594567 l -0.2255744137839983 -0.3744043203693436" fill="#ff0200" stroke="none" /><line stroke="#e1ed5e" stroke-width="0.3" x1="143.8653032363475" x2="146.44561519142675" y1="172.8068346515853" y2="177.08958963109032" /><path d="M 144.38136562736335 173.6633856474863 a86.0,86.0 0 0,1 -40.68145358897372,12.25698825130547" fill="none" id="id42" stroke="none" /><text fill="#e1ed5e" style="font-size:6.75px; font-family:Arial;" text-anchor="middle"><textPath startOffset="21.466115282336833" xlink:href="#id42">June</textPath></text><path d="M 110.5260780823613 118.17145234162733 l 0.31011339301420693 0.5353571099858183 a21.618690190433913,21.618690190433913 0 0,0 -0.323612472329118,0.1837556075551988 l -0.30085215376388985 -0.5406158833356456" fill="#ff0500" stroke="none" /><path d="M 110.21172684928248 118.3499491758327 l 0.8533615848774234 1.533446981321188 a22.75490331331033,22.75490331331033 0 0,0 -0.3438993918942477,0.18752136841290115 l -0.826839381114527 -1.5479090014938597" fill="#ff1502" stroke="none" /><path d="M 109.89434966115114 118.52300852407294 l 0.37138931214265947 0.6952702936685693 a21.78824539480531,21.78824539480531 0 0,0 -0.33233205799720605,0.17386042576107735 l -0.3593663516189578 -0.7015601383743635" fill="#ff0701" stroke="none" /><path d="M 109.57404056367764 118.69057910512821 l 0.746555903063693 1.4574371259246535 a22.63751906627763,22.63751906627763 0 0,0 -0.34834408695355334,0.1746669567031335 l -0.7213579084273791 -1.4700719235370892" fill="#ff1302" stroke="none" /><path d="M 109.2508944713604 118.85261126421891 l 1.9027977554117321 3.8777554438938915 a25.319447485575978,25.319447485575978 0 0,0 -0.3929184375610748,0.18862472764344423 l -1.8357666498504246 -3.909934448036896" fill="#ff3905" stroke="none" /><path d="M 108.92500713936063 119.00905698771935 l 0.5435186860914373 1.1576212227593383 a22.27886647368417,22.27886647368417 0 0,0 -0.34853907879188123,0.15999719631106094 l -0.5235116115321367 -1.1668054894044737" fill="#ff0e01" stroke="none" /><path d="M 108.59647513512805 119.15986991738527 l 0.5140185913899156 1.1456473951636341 a22.25567633820969,22.25567633820969 0 0,0 -0.35087591938523127,0.1538136917657191 l -0.49422199734693056 -1.1543256402238078" fill="#ff0e01" stroke="none" /><path d="M 108.2653958097858 119.30500536409082 l 0.3768962135021371 0.8802946151411027 a21.95758517386114,21.95758517386114 0 0,0 -0.3487372064760996,0.14577218059043456 l -0.3616875475285763 -0.8866518387515104" fill="#ff0901" stroke="none" /><path d="M 107.93186726928326 119.44442032107085 l 0.6755392878871593 1.6560375269947947 a22.788522748050504,22.788522748050504 0 0,0 -0.3644849761528884,0.14503609412385868 l -0.6469332356924047 -1.6674204655247222" fill="#ff1502" stroke="none" /><path d="M 107.59598834532513 119.57807347666477 l 0.13007444093667045 0.3352568285154768 a21.35960603617187,21.35960603617187 0 0,0 -0.34391994636468076,0.1300410956551211 l -0.1242842738117149 -0.3374461742772288" fill="#ff0100" stroke="none" /><path d="M 107.2578585660854 119.70592522655815 l 0.5292000923257334 1.436839441593475 a22.531195715327147,22.531195715327147 0 0,0 -0.36509167512137897,0.1309088853589038 l -0.5043888565746196 -1.4457358679923389" fill="#ff1202" stroke="none" /><path d="M 106.2309692047433 120.05430185196036 l 0.4766945328763957 1.5342358049539275 a22.606585566621607,22.606585566621607 0 0,0 -0.37260500033646066,0.11226283007595075 l -0.45021455809968924 -1.5422140041356038" fill="#ff1302" stroke="none" /><path d="M 105.88484417918355 120.15858648285463 l 0.36814930961421016 1.2610987598809973 a22.31373665410645,22.31373665410645 0 0,0 -0.3696311192897835,0.10446144645674867 l -0.34638702221982093 -1.267248999676265" fill="#ff0f01" stroke="none" /><path d="M 105.53697534728816 120.25689768951611 l 0.09094648736672202 0.33272564428354506 a21.344931323495338,21.344931323495338 0 0,0 -0.3552503569092311,0.09382484807997715 l -0.08520568764599347 -0.3342418416671062" fill="#ff0100" stroke="none" /><path d="M 104.83641907484287 120.43548508189849 l 0.07244597949572723 0.30610844724545677 a21.31456446305983,21.31456446305983 0 0,0 -0.3577597379855019,0.08142495159979375 l -0.06716609211736323 -0.3073101324229349" fill="#ff0000" stroke="none" /><path d="M 104.48393922423573 120.51570834832081 l 0.07019959725517014 0.32118955932149795 a21.32877152624874,21.32877152624874 0 0,0 -0.3593476896766077,0.07530480224387553 l -0.06466044614918444 -0.32235034229191467" fill="#ff0000" stroke="none" /><path d="M 103.41894727170886 120.7198165907248 l 0.1519513139566662 0.9208692342096658 a21.9333216746262,21.9333216746262 0 0,0 -0.37303789971973617,0.058260848024336294 l -0.1360775506284129 -0.9233483895811079" fill="#ff0901" stroke="none" /><path d="M 102.34483914955558 120.86867818915974 l 0.18454504222647883 1.6424201627472796 a22.65275553655378,22.65275553655378 0 0,0 -0.3878663089527,0.04020392881260356 l -0.15624613666817613 -1.6453534600156414" fill="#ff1302" stroke="none" /><path d="M 101.98527174616119 120.90594882070398 l 0.17456239520976757 1.8382332329725284 a22.846503032390146,22.846503032390146 0 0,0 -0.39182370889763857,0.03380819831187179 l -0.14289436857058732 -1.8409656835630634" fill="#ff1602" stroke="none" /><path d="M 101.62511606390274 120.93702456842531 l 0.10376596220060326 1.3368586701081038 a22.340879740601157,22.340879740601157 0 0,0 -0.3836644376866823,0.026459745910063642 l -0.08073876373499064 -1.3384467605344526" fill="#ff0f01" stroke="none" /><line stroke="#e1ed5e" stroke-width="0.3" x1="102.19456741930631" x2="102.32365962044197" y1="184.97166512339345" y2="189.96999836594603" /><path d="M 102.22038585953345 185.97133177190398 a86.0,86.0 0 0,1 -42.740103519485714,-10.115201625700543" fill="none" id="id43" stroke="none" /><text fill="#e1ed5e" style="font-size:6.75px; font-family:Arial;" text-anchor="middle"><textPath startOffset="22.20632615414155" xlink:href="#id43">July</textPath></text><path d="M 100.18074693466247 120.99922214144158 l 0.0083719891870657 0.9726597080788588 a21.972695737588584,21.972695737588584 0 0,0 -0.3782378476990416,0.0 l 0.00837198918706503 -0.9726597080788588" fill="#ff0a01" stroke="none" /><path d="M 99.45781275523022 120.99299961872073 l -0.0187638937060501 0.7265209892277817 a21.726763256841956,21.726763256841956 0 0,0 -0.3737827327942928,-0.01287383308349636 l 0.03126697817498595 -0.7260903577181916" fill="#ff0601" stroke="none" /><path d="M 99.09653310690486 120.98055641714683 l -0.038142643155205304 0.8857589389638162 a21.886579809820397,21.886579809820397 0 0,0 -0.37625316442693313,-0.019447990884082816 l 0.053383875995627356 -0.8849711413175315" fill="#ff0801" stroke="none" /><path d="M 98.73552117531835 120.96189622390904 l -0.0576218676068227 0.9552264422507359 a21.956962818296248,21.956962818296248 0 0,0 -0.3770713548795258,-0.026005048318352413 l 0.07405598326527857 -0.9540930494160984" fill="#ff0901" stroke="none" /><path d="M 98.01472825383883 120.90594882070398 l -0.08488394042693535 0.8938722458004118 a21.897893576742074,21.897893576742074 0 0,0 -0.3749413682474383,-0.0388642058616056 l 0.10025790527996697 -0.8922786714830455" fill="#ff0901" stroke="none" /><path d="M 97.65516085044442 120.86867818915974 l -0.04026308016262076 0.3583347126293605 a21.360589630881627,21.360589630881627 0 0,0 -0.36503475457029816,-0.04420062516784583 l 0.04642525778430827 -0.3575885587361661" fill="#ff0100" stroke="none" /><path d="M 96.22490169976321 120.6578951692458 l -0.2738229561383816 1.4983996370332568 a22.523213866654896,22.523213866654896 0 0,0 -0.3807843022185887,-0.07297821779446816 l 0.29957487292866536 -1.4934642208903206" fill="#ff1201" stroke="none" /><path d="M 95.16358092515715 120.4354850818985 l -0.3245149016942261 1.3711837890395377 a22.40906171076587,22.40906171076587 0 0,0 -0.3746013097881452,-0.09206788794133955 l 0.34806949622558186 -1.3653946427841683" fill="#ff1001" stroke="none" /><line stroke="#e1ed5e" stroke-width="0.3" x1="58.666819895761336" x2="56.23545636021788" y1="174.27360380694188" y2="178.64263932499728" /><path d="M 58.180547188652646 175.14741091055294 a86.0,86.0 0 0,1 -31.652253787137756,-30.449443065178592" fill="none" id="id44" stroke="none" /><text fill="#e1ed5e" style="font-size:6.75px; font-family:Arial;" text-anchor="middle"><textPath startOffset="22.20632615414155" xlink:href="#id44">August</textPath></text><path d="M 83.28015986056508 112.70617746262583 l -0.5770677297332505 0.4385403760321535 a21.724792953959895,21.724792953959895 0 0,0 -0.22370198617503947,-0.299685367337577 l 0.584530982603375 -0.4285421291852685" fill="#ff0601" stroke="none" /><path d="M 83.06392112726016 112.41649034213515 l -0.24974753821786647 0.1830995190536984 a21.30967606740525,21.30967606740525 0 0,0 -0.21433496206504216,-0.2976925160428022 l 0.25286229265851606 -0.17877339755975802" fill="#ff0000" stroke="none" /><path d="M 82.6465618267979 111.8261652097733 l -0.6288970803896762 0.42858600689963533 a21.761050263144842,21.761050263144842 0 0,0 -0.20828112028062484,-0.3113520148660349 l 0.6361813060810314 -0.41769707782777954" fill="#ff0701" stroke="none" /><line stroke="#e1ed5e" stroke-width="0.3" x1="26.63291911575756" x2="22.317208475507996" y1="142.92168965132927" y2="145.44649492493687" /><path d="M 25.769776987707644 143.4266507060508 a86.0,86.0 0 0,1 -11.730757126820373,-40.83630448921669" fill="none" id="id45" stroke="none" /><text fill="#e1ed5e" style="font-size:6.75px; font-family:Arial;" text-anchor="middle"><textPath startOffset="21.46611528233685" xlink:href="#id45">September</textPath></text><path d="M 79.97269907076064 106.31721596034903 l -1.1605675414582857 0.36607807621542393 a22.216934746061643,22.216934746061643 0 0,0 -0.11190270919579215,-0.3657045282992728 l 1.166697023160208 -0.34604657536410327" fill="#ff0d01" stroke="none" /><line stroke="#e1ed5e" stroke-width="0.3" x1="15.007084014347285" x2="10.007500721073583" y1="101.09737516637583" y2="101.16192664675087" /><path d="M 14.007167355692545 101.11028546245083 a86.0,86.0 0 0,1 10.666146001902534,-42.60595125391555" fill="none" id="id46" stroke="none" /><text fill="#e1ed5e" style="font-size:6.75px; font-family:Arial;" text-anchor="middle"><textPath startOffset="22.20632615414155" xlink:href="#id46">October</textPath></text><path d="M 79.00486145842228 99.54816195383935 l -0.9400277127250536 -0.020230411159870045 a21.9402453776684,21.9402453776684 0 0,0 0.011375814066198791,-0.37750788703677957 l 0.9395402042032097 0.036408445621644026" fill="#ff0901" stroke="none" /><path d="M 79.16333360222342 97.38593545837743 l -1.4180718751856545 -0.1779042451239029 a22.4291877985855,22.4291877985855 0 0,0 0.05135643272567649,-0.38266507574382497 l 1.4147994434021443 0.2022876629323873" fill="#ff1001" stroke="none" /><path d="M 79.21141760316559 97.0276538004421 l -1.4694297970238683 -0.21009869693501185 a22.48437373691244,22.48437373691244 0 0,0 0.05807832213979204,-0.3826635776609733 l 1.465595581444774 0.2353613869880772" fill="#ff1101" stroke="none" /><path d="M 79.26566170972629 96.67025291283419 l -1.218573673787053 -0.19569190412470194 a22.234186825317312,22.234186825317312 0 0,0 0.06393719776154737,-0.3773609604659083 l 1.2150246145052825 0.2166386529064382" fill="#ff0d01" stroke="none" /><path d="M 79.46518482838121 95.60439243477599 l -0.760910794917456 -0.16287778675614528 a21.778148065113893,21.778148065113893 0 0,0 0.08162202349643705,-0.36589552686407134 l 0.7579943844189814 0.1759514831701758" fill="#ff0701" stroke="none" /><path d="M 79.54389044137918 95.25157060432595 l -0.8781054068675125 -0.20383257698738763 a21.90145261939343,21.90145261939343 0 0,0 0.08840594327459164,-0.3664997094555638 l 0.8744666633321061 0.21891751810234825" fill="#ff0901" stroke="none" /><path d="M 79.62865764111835 94.90015583598534 l -0.33968342045659283 -0.08503772009274663 a21.350166017728252,21.350166017728252 0 0,0 0.09231778045655419,-0.3557380668918236 l 0.33816930812973134 0.09087221253343403" fill="#ff0100" stroke="none" /><path d="M 79.71946130924805 94.55025226153421 l -0.6489065504660412 -0.1743729325834206 a21.671926804685956,21.671926804685956 0 0,0 0.09991091533386179,-0.3594327209144835 l 0.6458088645658187 0.1855169569168466" fill="#ff0500" stroke="none" /><path d="M 79.81627453868168 94.20196356495316 l -0.3119591853175231 -0.08961431457165638 a21.32457550536065,21.32457550536065 0 0,0 0.10438288612129601,-0.35192720048869375 l 0.31037040208452016 0.09497090180688933" fill="#ff0000" stroke="none" /><path d="M 80.02781315780177 93.51064311812611 l -0.3557716490438111 -0.11559721613559518 a21.374080449424522,21.374080449424522 0 0,0 0.1167052336890889,-0.34893379420785076 l 0.3537291215829498 0.12170411326576813" fill="#ff0100" stroke="none" /><path d="M 80.38941819471856 92.48833698450439 l -0.2859829598039634 -0.10954328859548959 a21.306244976080507,21.306244976080507 0 0,0 0.13413442922088842,-0.341357491625568 l 0.28405498070138385 0.114449785116821" fill="#ff0000" stroke="none" /><path d="M 81.10775173730289 90.83032412892265 l -1.0452968832461096 -0.5073527234627718 a22.16191753585576,22.16191753585576 0 0,0 0.16952810218511447,-0.3417583092601719 l 1.0364087681075822 0.5252706212219053" fill="#ff0c01" stroke="none" /><path d="M 81.26839172434947 90.50648371742162 l -0.8755785665857386 -0.44375897980760387 a21.981610848770643,21.981610848770643 0 0,0 0.1739588746195705,-0.33603317576731023 l 0.8678102588060541 0.45876487783524966" fill="#ff0a01" stroke="none" /><path d="M 81.6062741919709 89.86733742301443 l -0.2702981400956968 -0.14890076525882154 a21.30859767081729,21.30859767081729 0 0,0 0.1797454881980568,-0.3197471669637985 l 0.26769501060520934 0.15353144215740464" fill="#ff0000" stroke="none" /><line stroke="#e1ed5e" stroke-width="0.3" x1="26.266209847984243" x2="21.928928074336255" y1="57.711370442889674" y2="55.22380399835377" /><path d="M 25.398753493254645 57.213857153982495 a86.0,86.0 0 0,1 29.58750427330803,-30.492523968695096" fill="none" id="id47" stroke="none" /><text fill="#e1ed5e" style="font-size:6.75px; font-family:Arial;" text-anchor="middle"><textPath startOffset="21.46611528233685" xlink:href="#id47">November</textPath></text><path d="M 81.78341655067845 89.55222093294921 l -0.32780316770741347 -0.18800534596480586 a21.37789009893137,21.37789009893137 0 0,0 0.18582509608554995,-0.3176353253001183 l 0.3245183971515386 0.19362008361881597" fill="#ff0100" stroke="none" /><path d="M 82.15384107792192 88.93136811851018 l -1.2901784071723095 -0.8002007554001035 a22.518183642144972,22.518183642144972 0 0,0 0.20713769820609462,-0.3276420943362224 l 1.276213112720252 0.8222904974505414" fill="#ff1101" stroke="none" /><path d="M 82.34701348167596 88.62581576622439 l -0.5966857760958671 -0.38445698352190805 a21.709817643887423,21.709817643887423 0 0,0 0.20510956506253586,-0.3123959393486526 l 0.589979575675411 0.39467098684822766" fill="#ff0600" stroke="none" /><path d="M 82.7489923806493 88.02491185347247 l -0.6166754232754226 -0.4280760123969096 a21.750691447974173,21.750691447974173 0 0,0 0.2161473721777105,-0.30572512928104884 l 0.6092154312938338 0.43862764200974463" fill="#ff0601" stroke="none" /><path d="M 83.17141714833178 87.43820079747576 l -0.5306988975190228 -0.3961434570216409 a21.66224690136607,21.66224690136607 0 0,0 0.22562164695878598,-0.2968916403255816 l 0.523801310336128 0.40521987322824904" fill="#ff0500" stroke="none" /><path d="M 83.39014120810768 87.1503855733568 l -0.5499833834304393 -0.42547468384207004 a21.695349141539776,21.695349141539776 0 0,0 0.23105125264735543,-0.2934116272400721 l 0.5425780501891128 0.4348787050351898" fill="#ff0600" stroke="none" /><path d="M 84.5562425177563 85.77008943001954 l -0.42246499751330907 -0.38926013571977064 a21.574456375527763,21.574456375527763 0 0,0 0.25399574413110954,-0.27094495049795264 l 0.4157019314117436 0.3964745030957734" fill="#ff0400" stroke="none" /><path d="M 86.37877921826538 84.01681056812374 l -0.7135192488586931 -0.837246051623447 a22.100041212614748,22.100041212614748 0 0,0 0.2916599930937724,-0.24425685652366336 l 0.6990017188058104 0.8494040655409227" fill="#ff0b01" stroke="none" /><path d="M 88.09926311788651 82.69761687909137 l -0.18308404118081284 -0.26618437624612523 a21.32306947904845,21.32306947904845 0 0,0 0.30420435794124334,-0.20540014042092394 l 0.17847498883302998 0.26929642896571465" fill="#ff0000" stroke="none" /><line stroke="#e1ed5e" stroke-width="0.3" x1="56.762969772571076" x2="54.21961505331055" y1="26.818313649435495" y2="22.513508569990535" /><path d="M 56.25429882871897 25.957352633546506 a86.0,86.0 0 0,1 42.265352541879196,-11.944610805530505" fill="none" id="id48" stroke="none" /><text fill="#e1ed5e" style="font-size:6.75px; font-family:Arial;" text-anchor="middle"><textPath startOffset="22.20632615414155" xlink:href="#id48">December</textPath></text><path d="M 89.3179101791058 81.91981866633112 l -0.27129829580752923 -0.4591912693077183 a21.533347341904413,21.533347341904413 0 0,0 0.3207476861669959,-0.18579776265853132 l 0.2633538771752132 0.4637931893562968" fill="#ff0300" stroke="none" /></svg>