<?xml version="1.0" encoding="utf-8" ?>
<svg baseProfile="full" height="200mm" version="1.1" viewBox="0,0,200,200" width="200mm" xmlns="http://www.w3.org/2000/svg" xmlns:ev="http://www.w3.org/2001/xml-events" xmlns:xlink="http://www.w3.org/1999/xlink"><defs /><rect fill="#1a1a1a" height="200" width="200" x="0" y="0" /><rect fill="#1a1a1a" height="200" width="180" x="10" y="0" /><text alignment-baseline="middle" fill="#e1ed5e" style="dominant-baseline: central; font-size:9.0px; font-family:Arial;" text-anchor="middle" x="100.0" y="100.0">2025</text><line stroke="#e1ed5e" stroke-width="0.3" x1="100.0" x2="100.0" y1="15.0" y2="10.0" /><path d="M 100.0 14.0 a86.0,86.0 0 0,1 42.46469731375804,11.215312516191453" fill="none" id="id61" stroke="none" /><text fill="#e1ed5e" style="font-size:6.75px; font-family:Arial;" text-anchor="middle"><textPath startOffset="22.20632615414155" xlink:href="#id61">January</textPath></text><path d="M 110.36928655335952 81.73862282372117 l 0.7056087064087607 -1.2426493047799771 a22.429006977320267,22.429006977320267 0 0,0 0.33408888905065376,0.19352584848380971 l -0.7268943279247428 1.2303192989061178" fill="#ff0500" stroke="none" /><line stroke="#e1ed5e" stroke-width="0.3" x1="143.23703022742887" x2="145.7803849466894" y1="26.81831364943548" y2="22.513508569990506" /><path d="M 143.74570117128098 25.957352633546492 a86.0,86.0 0 0,1 28.547481713284135,27.462654790039103" fill="none" id="id62" stroke="none" /><text fill="#e1ed5e" style="font-size:6.75px; font-family:Arial;" text-anchor="middle"><textPath startOffset="19.985693538727396" xlink:href="#id62">February</textPath></text><path d="M 110.68208982089419 81.91981866633111 l 0.5631515786251413 -0.9531732863702996 a22.107103885982678,22.107103885982678 0 0,0 0.3259618080556054,0.19638834214193837 l -0.5794754528983842 0.9433383347697467" fill="#ff0000" stroke="none" /><path d="M 114.16331599549186 84.49514656593476 l 7.186469019874881 -7.8671653514669035 a31.655403682683392,31.655403682683392 0 0,0 0.3991476824031493,0.3709642701078247 l -7.320824586072877 7.742296495284438" fill="#ff860c" stroke="none" /><path d="M 114.68862486808459 84.99185889309783 l 6.858983992184385 -7.008184941012114 a30.806136730255734,30.806136730255734 0 0,0 0.37578235073533406,0.3741686218980387 l -6.978602143087041 6.889080468463957" fill="#ff7b0b" stroke="none" /><path d="M 114.94478906791727 85.2469230424477 l 14.827015517676827 -14.636814209221416 a41.8345078981169,41.8345078981169 0 0,0 0.5014876499214551,0.5168271052530026 l -15.076767431301391 14.3794229084183" fill="#f6ff19" stroke="none" /><path d="M 117.2510076193507 88.02491185347247 l 2.5859370985587407 -1.795073388170129 a24.14791345920103,24.14791345920103 0 0,0 0.23409163740200165,0.3435005924965566 l -2.6164532016294757 1.7502947724031659" fill="#ff1e03" stroke="none" /><path d="M 117.65298651832404 88.62581576622439 l 5.140276097640736 -3.3119861778827 a27.114874553289113,27.114874553289113 0 0,0 0.24942121404515363,0.3945244619853191 l -5.1965249079318445 3.223014068183175" fill="#ff4806" stroke="none" /><line stroke="#e1ed5e" stroke-width="0.3" x1="172.23445277983987" x2="176.4835382374775" y1="55.19839476539836" y2="52.563006222186495" /><path d="M 173.08426987136738 54.67131705675599 a86.0,86.0 0 0,1 12.851231095245387,41.99856678651699" fill="none" id="id63" stroke="none" /><text fill="#e1ed5e" style="font-size:6.75px; font-family:Arial;" text-anchor="middle"><textPath startOffset="22.20632615414155" xlink:href="#id63">March</textPath></text><path d="M 117.84615892207809 88.93136811851018 l 3.0305213365836665 -1.87960475024948 a24.56608659298246,24.56608659298246 0 0,0 0.21978950327400032,0.361276153623735 l -3.062426638143891 1.8271608234186634" fill="#ff2403" stroke="none" /><path d="M 119.47837535516314 92.15188598940014 l 1.3563754808633885 -0.5465029408716268 a22.462333720280267,22.462333720280267 0 0,0 0.14141263821575387,0.35987973964529874 l -1.3655816689608429 0.5230741963305438" fill="#ff0500" stroke="none" /><path d="M 119.7369772167798 92.82701384747503 l 2.2294013807498225 -0.8102286919064304 a23.372066830778092,23.372066830778092 0 0,0 0.13416336435988271,0.3792978976783317 l -2.243017825919515 0.7717331678014842" fill="#ff1302" stroke="none" /><path d="M 120.08093135843002 93.85539295169968 l 2.743896356149102 -0.8396107027536545 a23.86947962973547,23.86947962973547 0 0,0 0.11684008309281686,0.3939266758723159 l -2.7579423363536213 0.7922546401348087" fill="#ff1a02" stroke="none" /><path d="M 120.73433829027371 96.67025291283417 l 1.2979702911114064 -0.20844228234104578 a22.314600723290297,22.314600723290297 0 0,0 0.05763978949969689,0.3797741954819161 l -1.301365974050403 0.18606897446704754" fill="#ff0300" stroke="none" /><path d="M 120.78858239683441 97.02765380044208 l 1.567578573469027 -0.22413198391385195 a22.583520675650416,22.583520675650416 0 0,0 0.05170981092596907,0.3852981537947125 l -1.5712043834528324 0.1971154880544751" fill="#ff0701" stroke="none" /><line stroke="#e1ed5e" stroke-width="0.3" x1="184.98032266829074" x2="189.97916517819016" y1="98.17113171792111" y2="98.06355123074" /><path d="M 185.9800911702706 98.14961562048488 a86.0,86.0 0 0,1 -9.607161424134198,41.387399972396054" fill="none" id="id64" stroke="none" /><text fill="#e1ed5e" style="font-size:6.75px; font-family:Arial;" text-anchor="middle"><textPath startOffset="21.466115282336823" xlink:href="#id64">April</textPath></text><path d="M 118.64920377521936 109.65438752849418 l 2.2273666745267136 1.153071267981323 a23.508133898306916,23.508133898306916 0 0,0 -0.18912572659201524,0.3577546008211214 l -2.207188439709805 -1.1912408838885788" fill="#ff1502" stroke="none" /><line stroke="#e1ed5e" stroke-width="0.3" x1="174.80103733775053" x2="179.2010983576182" y1="140.37084112569926" y2="142.7455964860345" /><path d="M 175.68104954172406 140.8457921977663 a86.0,86.0 0 0,1 -30.038265399797805,32.042727171017184" fill="none" id="id65" stroke="none" /><text fill="#e1ed5e" style="font-size:6.75px; font-family:Arial;" text-anchor="middle"><textPath startOffset="22.206326154141568" xlink:href="#id65">May</textPath></text><path d="M 118.48025628344425 109.97397251340804 l 5.798392981452502 3.1294486035215736 a27.588991556334,27.588991556334 0 0,0 -0.22915099842227438,0.41597562354330325 l -5.743665573578718 -3.228794745462682" fill="#ff4e07" stroke="none" /><path d="M 117.75023020441432 111.22182372390056 l 25.066832309477018 15.847432413781892 a50.65614938155029,50.65614938155029 0 0,0 -0.4722965566168184,0.7330147442002564 l -24.790330889483148 -16.2765687579036" fill="#91ff24" stroke="none" /><path d="M 117.55443506779139 111.5257021239791 l 9.67015333563146 6.349125244376997 a32.56820024478352,32.56820024478352 0 0,0 -0.3117193862649182,0.46597818782432626 l -9.55943084395582 -6.51464034640713" fill="#ff920d" stroke="none" /><line stroke="#e1ed5e" stroke-width="0.3" x1="143.8653032363475" x2="146.44561519142675" y1="172.8068346515853" y2="177.08958963109032" /><path d="M 144.38136562736335 173.6633856474863 a86.0,86.0 0 0,1 -40.68145358897372,12.25698825130547" fill="none" id="id66" stroke="none" /><text fill="#e1ed5e" style="font-size:6.75px; font-family:Arial;" text-anchor="middle"><textPath startOffset="21.466115282336833" xlink:href="#id66">June</textPath></text><path d="M 107.59598834532513 119.57807347666477 l 0.46279119628629667 1.192808576493266 a22.279440499404327,22.279440499404327 0 0,0 -0.3587305856022942,0.13564121211876384 l -0.44219038992372767 -1.2005980387186608" fill="#ff0300" stroke="none" /><path d="M 106.57524785965236 119.94407469862006 l 0.5172623498173312 1.568962746917045 a22.652030399160992,22.652030399160992 0 0,0 -0.3713624074658226,0.1188985156322527 l -0.4901785972605682 -1.5776341092090043" fill="#ff0801" stroke="none" /><path d="M 105.18746579009965 120.34920634021253 l 0.2700870397066869 1.0594878353314332 a22.093371612139627,22.093371612139627 0 0,0 -0.3693240730185334,0.09077087153790184 l -0.25180968194494235 -1.063979965183365" fill="#ff0000" stroke="none" /><path d="M 104.83641907484287 120.43548508189849 l 2.955916735767332 12.489734951074311 a33.83475449305037,33.83475449305037 0 0,0 -0.5679080575733135,0.12925402495379137 l -2.7404885288011567 -12.538765709605787" fill="#ffa30f" stroke="none" /><line stroke="#e1ed5e" stroke-width="0.3" x1="102.19456741930631" x2="102.32365962044197" y1="184.97166512339345" y2="189.96999836594603" /><path d="M 102.22038585953345 185.97133177190398 a86.0,86.0 0 0,1 -42.740103519485714,-10.115201625700543" fill="none" id="id67" stroke="none" /><text fill="#e1ed5e" style="font-size:6.75px; font-family:Arial;" text-anchor="middle"><textPath startOffset="22.20632615414155" xlink:href="#id67">July</textPath></text><line stroke="#e1ed5e" stroke-width="0.3" x1="58.666819895761336" x2="56.23545636021788" y1="174.27360380694188" y2="178.64263932499728" /><path d="M 58.180547188652646 175.14741091055294 a86.0,86.0 0 0,1 -31.652253787137756,-30.449443065178592" fill="none" id="id68" stroke="none" /><text fill="#e1ed5e" style="font-size:6.75px; font-family:Arial;" text-anchor="middle"><textPath startOffset="22.20632615414155" xlink:href="#id68">August</textPath></text><path d="M 82.6465618267979 111.8261652097733 l -2.817187271870014 1.919880185786703 a24.40917644784819,24.40917644784819 0 0,0 -0.23362707930947738,-0.3492407846292889 l 2.849817456590222 -1.871102486951593" fill="#ff2203" stroke="none" /><line stroke="#e1ed5e" stroke-width="0.3" x1="26.63291911575756" x2="22.317208475507996" y1="142.92168965132927" y2="145.44649492493687" /><path d="M 25.769776987707644 143.4266507060508 a86.0,86.0 0 0,1 -11.730757126820373,-40.83630448921669" fill="none" id="id69" stroke="none" /><text fill="#e1ed5e" style="font-size:6.75px; font-family:Arial;" text-anchor="middle"><textPath startOffset="21.46611528233685" xlink:href="#id69">September</textPath></text><line stroke="#e1ed5e" stroke-width="0.3" x1="15.007084014347285" x2="10.007500721073583" y1="101.09737516637583" y2="101.16192664675087" /><path d="M 14.007167355692545 101.11028546245083 a86.0,86.0 0 0,1 10.666146001902534,-42.60595125391555" fill="none" id="id70" stroke="none" /><text fill="#e1ed5e" style="font-size:6.75px; font-family:Arial;" text-anchor="middle"><textPath startOffset="22.20632615414155" xlink:href="#id70">October</textPath></text><line stroke="#e1ed5e" stroke-width="0.3" x1="26.266209847984243" x2="21.928928074336255" y1="57.711370442889674" y2="55.22380399835377" /><path d="M 25.398753493254645 57.213857153982495 a86.0,86.0 0 0,1 29.58750427330803,-30.492523968695096" fill="none" id="id71" stroke="none" /><text fill="#e1ed5e" style="font-size:6.75px; font-family:Arial;" text-anchor="middle"><textPath startOffset="21.46611528233685" xlink:href="#id71">November</textPath></text><path d="M 83.17141714833178 87.43820079747576 l -26.912818277223543 -20.08923877621657 a54.5838845613592,54.5838845613592 0 0,0 0.5685147061713843,-0.748098712776751 l 26.56302763082805 20.549522264874344" fill="#67ff28" stroke="none" /><path d="M 85.31137513191541 84.99185889309783 l -3.9732573934167768 -4.059686195949349 a26.680477649275876,26.680477649275876 0 0,0 0.33098626171716544,-0.3184085215318383 l 3.902787888087184 4.127477804243501" fill="#ff4206" stroke="none" /><path d="M 85.83668400450813 84.49514656593479 l -42.48994798647562 -46.514560302195655 a84.0,84.0 0 0,0 1.0759560496161145,-0.9660039649228849 l 41.68298094926353 47.23906327588782" fill="#4dd2ff" stroke="none" /><line stroke="#e1ed5e" stroke-width="0.3" x1="56.762969772571076" x2="54.21961505331055" y1="26.818313649435495" y2="22.513508569990535" /><path d="M 56.25429882871897 25.957352633546506 a86.0,86.0 0 0,1 42.265352541879196,-11.944610805530505" fill="none" id="id72" stroke="none" /><text fill="#e1ed5e" style="font-size:6.75px; font-family:Arial;" text-anchor="middle"><textPath startOffset="22.20632615414155" xlink:href="#id72">December</textPath></text></svg>