<?xml version="1.0" encoding="utf-8" ?>
<svg baseProfile="full" height="200mm" version="1.1" viewBox="0,0,200,200" width="200mm" xmlns="http://www.w3.org/2000/svg" xmlns:ev="http://www.w3.org/2001/xml-events" xmlns:xlink="http://www.w3.org/1999/xlink"><defs /><rect fill="#1a1a1a" height="200" width="200" x="0" y="0" /><rect fill="#1a1a1a" height="200" width="180" x="10" y="0" /><text alignment-baseline="middle" fill="#e1ed5e" style="dominant-baseline: central; font-size:9.0px; font-family:Arial;" text-anchor="middle" x="100.0" y="100.0">2020</text><line stroke="#e1ed5e" stroke-width="0.3" x1="100.0" x2="100.0" y1="15.0" y2="10.0" /><path d="M 100.0 14.0 a86.0,86.0 0 0,1 42.35913384403234,11.155469271406648" fill="none" id="id1" stroke="none" /><text fill="#e1ed5e" style="font-size:6.75px; font-family:Arial;" text-anchor="middle"><textPath startOffset="22.145653131862478" xlink:href="#id1">January</textPath></text><line stroke="#e1ed5e" stroke-width="0.3" x1="143.13028292997686" x2="145.6673583964461" y1="26.7553504044142" y2="22.446841604673864" /><path d="M 143.63769802327073 25.89364864446614 a86.0,86.0 0 0,1 29.32050498858742,28.57503671076993" fill="none" id="id2" stroke="none" /><text fill="#e1ed5e" style="font-size:6.75px; font-family:Arial;" text-anchor="middle"><textPath startOffset="20.669276256404974" xlink:href="#id2">February</textPath></text><line stroke="#e1ed5e" stroke-width="0.3" x1="172.87174338648825" x2="177.1583165268699" y1="56.24261187166439" y2="53.66864786411523" /><path d="M 173.72905801456457 55.72781907015455 a86.0,86.0 0 0,1 12.242430191666344,42.057860355516425" fill="none" id="id3" stroke="none" /><text fill="#e1ed5e" style="font-size:6.75px; font-family:Arial;" text-anchor="middle"><textPath startOffset="22.145653131862474" xlink:href="#id3">March</textPath></text><path d="M 120.43855184770803 95.1765574152323 l 5.01163827134797 -1.1827329860545965 a26.149308252488026,26.149308252488026 0 0,0 0.09935384649185826,0.4377713796580795 l -5.031202979397495 1.0965272724574906" fill="red" stroke="none" /><path d="M 120.77682067341334 96.94652285012252 l 58.00203994095384 -8.52430246137786 a79.6250831109437,79.6250831109437 0 0,0 0.18713973672723846,1.3540499114027569 l -58.13982419423629 7.527364241775018" fill="red" stroke="none" /><path d="M 120.82617615685814 97.30363454192243 l 9.016608735191298 -1.1673805195662028 a30.091865065045273,30.091865065045273 0 0,0 0.061928934698427016,0.5128604180927218 l -9.035319756149388 1.012426424550068" fill="red" stroke="none" /><path d="M 120.96210409425399 98.7389718711861 l 60.647897434581914 -3.6484269076496343 a81.75753847989589,81.75753847989589 0 0,0 0.07225190305380787,1.4016676169928501 l -60.70159092709229 2.6067874972800533" fill="red" stroke="none" /><path d="M 120.99303781780057 99.45929381324524 l 16.728611501003634 -0.4308696917956199 a37.73415941847152,37.73415941847152 0 0,0 0.0111200203156215,0.6476854350334743 l -16.73354295291792 0.14363734079307922" fill="red" stroke="none" /><line stroke="#e1ed5e" stroke-width="0.3" x1="184.99686870605535" x2="189.99668451229388" y1="99.2704041080226" y2="99.22748670261217" /><path d="M 185.99683186730306 99.26182062694052 a86.0,86.0 0 0,1 -10.086455211305974,41.156179273409016" fill="none" id="id4" stroke="none" /><text fill="#e1ed5e" style="font-size:6.75px; font-family:Arial;" text-anchor="middle"><textPath startOffset="21.40746469413373" xlink:href="#id4">April</textPath></text><path d="M 120.99922638620191 99.81974689727618 l 19.368237671566135 -0.16625302620130344 a40.368951199561494,40.368951199561494 0 0,0 0.0,0.6930122578502583 l -19.368237671566135 -0.16625302620130109" fill="red" stroke="none" /><path d="M 120.99303781780057 100.54070618675476 l 20.59005352270826 0.5303267407968828 a41.59688205821442,41.59688205821442 0 0,0 -0.0245130683536044,0.7136712390114379 l -20.57791576735781 -0.8837042443724314" fill="red" stroke="none" /><path d="M 120.98066250479742 100.90099992219065 l 24.233095541230593 1.0406733911331283 a45.255430744833674,45.255430744833674 0 0,0 -0.039993755384869836,0.7758681700488588 l -24.21166019638915 -1.4565133545587177" fill="red" stroke="none" /><path d="M 120.96210409425399 101.26102812881392 l 39.20639396417821 2.3585593028202285 a60.27727243151273,60.27727243151273 0 0,0 -0.07100099770141859,1.0323389240016028 l -39.16012900531173 -3.031241650976175" fill="red" stroke="none" /><path d="M 120.7213421655516 103.40968896794604 l 4.332919151588428 0.712980197524762 a25.39118766807617,25.39118766807617 0 0,0 -0.07446290126797143,0.42948222676769066 l -4.320041432828223 -0.7872554572130407" fill="red" stroke="none" /><path d="M 120.65975698304385 103.76489593502545 l 4.999220539288369 0.911024515056493 a26.081552092370657,26.081552092370657 0 0,0 -0.08404930157746333,0.4397814617075447 l -4.982844945428746 -0.9967085417973521" fill="red" stroke="none" /><path d="M 120.592083275326 104.11899336999214 l 5.068936667176095 1.0139292972861105 a26.169349239095517,26.169349239095517 0 0,0 -0.09189465329178947,0.4397491822401669 l -5.050784303059941 -1.1007949308116864" fill="red" stroke="none" /><path d="M 120.51834098615036 104.47187691870673 l 4.92024622748007 1.0723447648069375 a26.03574683970915,26.03574683970915 0 0,0 -0.09892237185919826,0.4358702228141658 l -4.901112994063207 -1.1566493215601203" fill="red" stroke="none" /><path d="M 120.35273937422433 105.17358676015961 l 4.260697899123742 1.0830527446277265 a25.3961972015872,25.3961972015872 0 0,0 -0.11103038336491318,0.4216004504412455 l -4.241478034954099 -1.1560336994417753" fill="red" stroke="none" /><path d="M 120.26092885502905 105.52220625578681 l 4.767367140897154 1.2993671137915341 a25.94126950818399,25.94126950818399 0 0,0 -0.12078935476237887,0.42863880777315927 l -4.744359294060195 -1.381013845467702" fill="red" stroke="none" /><path d="M 120.05942366710727 106.21446072829308 l 4.2917432671584805 1.3295930347892564 a25.492980960271282,25.492980960271282 0 0,0 -0.1330919149173511,0.4169085278701489 l -4.268286636463874 -1.403070596350789" fill="red" stroke="none" /><path d="M 119.4528033332814 107.91128576633889 l 4.023651248276066 1.6363839341724586 a25.343676063862414,25.343676063862414 0 0,0 -0.16735775592842891,0.40159768977641186 l -3.9949676478111513 -1.7052141333901483" fill="red" stroke="none" /><line stroke="#e1ed5e" stroke-width="0.3" x1="174.33088141563837" x2="178.70328620479359" y1="141.23008692659167" y2="143.65538615756765" /><path d="M 175.20536237346943 141.71514677278685 a86.0,86.0 0 0,1 -30.301960400862466,31.631185727798858" fill="none" id="id5" stroke="none" /><text fill="#e1ed5e" style="font-size:6.75px; font-family:Arial;" text-anchor="middle"><textPath startOffset="22.145653131862474" xlink:href="#id5">May</textPath></text><path d="M 117.62189284568427 111.42229804090321 l 9.665444748625255 6.265024511468339 a32.51830518427197,32.51830518427197 0 0,0 -0.3076472632301084,0.46581716770191606 l -9.55647304647442 -6.430021557509317" fill="red" stroke="none" /><path d="M 117.423217284605 111.72311816256416 l 9.595918150981447 6.456561984200727 a32.56584790735903,32.56584790735903 0 0,0 -0.31605971584909964,0.4611405709828795 l -9.483668698317027 -6.620337290253651" fill="red" stroke="none" /><path d="M 117.01052211995028 112.31430620078461 l 7.905214430521096 5.722765614944124 a30.759224430051077,30.759224430051077 0 0,0 -0.31330171355979536,0.4250539457801636 l -7.805810697377472 -5.857625869993165" fill="red" stroke="none" /><path d="M 116.57777611688842 112.89097897827486 l 6.762417712125018 5.258496915066277 a29.56633428713961,29.56633428713961 0 0,0 -0.31499911918602497,0.39799109688218376 l -6.671152162297431 -5.373807955863144" fill="red" stroke="none" /><path d="M 116.1254893667686 113.45245675266167 l 22.57682435427455 18.834389848918967 a50.40148361740996,50.40148361740996 0 0,0 -0.5599495302499451,0.6596191386613683 l -22.25018026051749 -19.219175770029892" fill="red" stroke="none" /><path d="M 115.89218393027572 113.72728997021213 l 3.6621328944193974 3.1632631721167797 a25.839158111950766,25.839158111950766 0 0,0 -0.2928301784413832,0.3331869889718569 l -3.6072916520194287 -3.22566243889993" fill="red" stroke="none" /><path d="M 115.16444852881244 114.52719865689866 l 4.116645691304823 3.9436534499770826 a26.70080470471097,26.70080470471097 0 0,0 -0.3199178515999955,0.32826389896606534 l -4.048341038554021 -4.013740041010886" fill="red" stroke="none" /><line stroke="#e1ed5e" stroke-width="0.3" x1="143.1302829299769" x2="145.66735839644613" y1="173.24464959558577" y2="177.55315839532614" /><path d="M 143.63769802327073 174.10635135553383 a86.0,86.0 0 0,1 -40.68552437913181,11.842963189579606" fill="none" id="id6" stroke="none" /><text fill="#e1ed5e" style="font-size:6.75px; font-family:Arial;" text-anchor="middle"><textPath startOffset="21.407464694133747" xlink:href="#id6">June</textPath></text><line stroke="#e1ed5e" stroke-width="0.3" x1="101.45913802915013" x2="101.54496967792366" y1="184.9874750549273" y2="189.98673829345242" /><path d="M 101.47630435890484 185.9873277026323 a86.0,86.0 0 0,1 -42.54439059252881,-10.42667462771756" fill="none" id="id7" stroke="none" /><text fill="#e1ed5e" style="font-size:6.75px; font-family:Arial;" text-anchor="middle"><textPath startOffset="22.145653131862474" xlink:href="#id7">July</textPath></text><path d="M 98.19965949673042 120.92268563240118 l -0.4572375457642251 5.313793369632931 a26.33342911722012,26.33342911722012 0 0,0 -0.4500513908447644,-0.04262033462966629 l 0.5483884999940049 -5.305161279498082" fill="red" stroke="none" /><path d="M 92.25597844496254 119.51999308798841 l -4.746038306909534 11.96311687509942 a33.87016103154662,33.87016103154662 0 0,0 -0.5386090083450652,-0.219047594752168 l 4.95070177644504 -11.87988202376796" fill="red" stroke="none" /><path d="M 91.26138138417905 119.09545874513695 l -5.434831248686176 11.876087109257409 a34.06058328438534,34.06058328438534 0 0,0 -0.5295792787843757,-0.24786984249646182 l 5.6378992413420415 -11.78104103519042" fill="red" stroke="none" /><path d="M 90.28995756902619 118.62028667847754 l -3.8222790665865447 7.32972409656579 a29.266478851037053,29.266478851037053 0 0,0 -0.4434724234736211,-0.2361240868161149 l 3.9475403058467275 -7.263029542027101" fill="red" stroke="none" /><line stroke="#e1ed5e" stroke-width="0.3" x1="58.13341422392154" x2="55.67067388415222" y1="173.97424548756322" y2="178.32567169271397" /><path d="M 57.64086615596768 174.84453072859336 a86.0,86.0 0 0,1 -31.369924170532247,-30.572349798747897" fill="none" id="id8" stroke="none" /><text fill="#e1ed5e" style="font-size:6.75px; font-family:Arial;" text-anchor="middle"><textPath startOffset="22.145653131862474" xlink:href="#id8">August</textPath></text><path d="M 89.65649057296885 118.27599006163327 l -8.458648192335412 14.945620863841132 a38.17324408046955,38.17324408046955 0 0,0 -0.5675225870536192,-0.3276593184066024 l 8.713963247249431 -14.798214648158359" fill="red" stroke="none" /><path d="M 89.34428304082925 118.09573695890944 l -2.628912409693449 4.46446800680858 a26.180989774324747,26.180989774324747 0 0,0 -0.3853183971499397,-0.2313726263917595 l 2.705163563400816 -4.418681379880901" fill="red" stroke="none" /><path d="M 89.03521579738668 117.91015095944536 l -9.020649806212793 14.734553530297157 a38.276550311434264,38.276550311434264 0 0,0 -0.5574448624486618,-0.3478868226117291 l 9.272258797451167 -14.57753091084388" fill="red" stroke="none" /><path d="M 88.72937992617639 117.7192867562869 l -12.502859102190708 19.656571178342446 a44.295971244369184,44.295971244369184 0 0,0 -0.6381032254548583,-0.413610801395386 l 12.838447959902576 -19.439046535243165" fill="red" stroke="none" /><path d="M 88.4268655584334 117.5232005979908 l -34.7194033246998 52.56960179397239 a84.0,84.0 0 0,0 -1.1964148476119774,-0.8050013037715154 l 35.61671446040878 -51.96585081614375" fill="red" stroke="none" /><line stroke="#e1ed5e" stroke-width="0.3" x1="26.387840678322732" x2="22.057713659400548" y1="142.50000000000003" y2="145.00000000000006" /><path d="M 25.521815274538298 143.00000000000003 a86.0,86.0 0 0,1 -11.493303480769221,-40.785679425670985" fill="none" id="id9" stroke="none" /><text fill="#e1ed5e" style="font-size:6.75px; font-family:Arial;" text-anchor="middle"><textPath startOffset="21.40746469413373" xlink:href="#id9">September</textPath></text><path d="M 80.41425534168474 107.57618678355246 l -10.166170585770596 3.9324931767940345 a31.90025352753407,31.90025352753407 0 0,0 -0.19317778224964927,-0.5124270183183744 l 10.232179051834681 -3.757397878281515" fill="red" stroke="none" /><path d="M 79.06263194458094 101.62068470465958 l -4.667654107402681 0.36130594822069945 a25.681616906002965,25.681616906002965 0 0,0 -0.030250546339561177,-0.4398363046949026 l 4.673168614907309 -0.28112621937145355" fill="red" stroke="none" /><line stroke="#e1ed5e" stroke-width="0.3" x1="15.003131293944662" x2="10.003315487706104" y1="100.72959589197737" y2="100.7725132973878" /><path d="M 14.003168132696942 100.73817937305945 a86.0,86.0 0 0,1 10.791469493833604,-42.45332614584628" fill="none" id="id10" stroke="none" /><text fill="#e1ed5e" style="font-size:6.75px; font-family:Arial;" text-anchor="middle"><textPath startOffset="22.145653131862435" xlink:href="#id10">October</textPath></text><line stroke="#e1ed5e" stroke-width="0.3" x1="26.387840678322718" x2="22.05771365940052" y1="57.49999999999999" y2="54.99999999999999" /><path d="M 25.521815274538284 56.99999999999999 a86.0,86.0 0 0,1 29.574782752854787,-30.34633250058573" fill="none" id="id11" stroke="none" /><text fill="#e1ed5e" style="font-size:6.75px; font-family:Arial;" text-anchor="middle"><textPath startOffset="21.40746469413373" xlink:href="#id11">November</textPath></text><line stroke="#e1ed5e" stroke-width="0.3" x1="56.869717070023135" x2="54.33264160355391" y1="26.7553504044142" y2="22.446841604673864" /><path d="M 56.362301976729285 25.89364864446614 a86.0,86.0 0 0,1 42.16139366436587,-11.88097634709845" fill="none" id="id12" stroke="none" /><text fill="#e1ed5e" style="font-size:6.75px; font-family:Arial;" text-anchor="middle"><textPath startOffset="22.145653131862474" xlink:href="#id12">December</textPath></text></svg>