<?xml version="1.0" encoding="utf-8" ?>
<svg baseProfile="full" height="200mm" version="1.1" viewBox="0,0,200,200" width="200mm" xmlns="http://www.w3.org/2000/svg" xmlns:ev="http://www.w3.org/2001/xml-events" xmlns:xlink="http://www.w3.org/1999/xlink"><defs /><rect fill="#1a1a1a" height="200" width="200" x="0" y="0" /><rect fill="#1a1a1a" height="200" width="180" x="10" y="0" /><text alignment-baseline="middle" fill="#e1ed5e" style="dominant-baseline: central; font-size:9.0px; font-family:Arial;" text-anchor="middle" x="100.0" y="100.0">2022</text><line stroke="#e1ed5e" stroke-width="0.3" x1="100.0" x2="100.0" y1="15.0" y2="10.0" /><path d="M 100.0 14.0 a86.0,86.0 0 0,1 42.46469731375804,11.215312516191453" fill="none" id="id25" stroke="none" /><text fill="#e1ed5e" style="font-size:6.75px; font-family:Arial;" text-anchor="middle"><textPath startOffset="22.20632615414155" xlink:href="#id25">January</textPath></text><line stroke="#e1ed5e" stroke-width="0.3" x1="143.23703022742887" x2="145.7803849466894" y1="26.81831364943548" y2="22.513508569990506" /><path d="M 143.74570117128098 25.957352633546492 a86.0,86.0 0 0,1 28.547481713284135,27.462654790039103" fill="none" id="id26" stroke="none" /><text fill="#e1ed5e" style="font-size:6.75px; font-family:Arial;" text-anchor="middle"><textPath startOffset="19.985693538727396" xlink:href="#id26">February</textPath></text><line stroke="#e1ed5e" stroke-width="0.3" x1="172.23445277983987" x2="176.4835382374775" y1="55.19839476539836" y2="52.563006222186495" /><path d="M 173.08426987136738 54.67131705675599 a86.0,86.0 0 0,1 12.851231095245387,41.99856678651699" fill="none" id="id27" stroke="none" /><text fill="#e1ed5e" style="font-size:6.75px; font-family:Arial;" text-anchor="middle"><textPath startOffset="22.20632615414155" xlink:href="#id27">March</textPath></text><path d="M 119.97218684219823 93.5106431181261 l 7.189768106027494 -2.3360972689954917 a28.559769564521023,28.559769564521023 0 0,0 0.14789134880882607,0.46885599067944966 l -7.228914938604526 2.211991111889623" fill="#ff4706" stroke="none" /><path d="M 120.08093135843002 93.85539295169968 l 2.6481613959719996 -0.8103165579466696 a23.76936305008912,23.76936305008912 0 0,0 0.1163500167123887,0.39227441566255994 l -2.6617173097960904 0.7646127555375797" fill="#ff0000" stroke="none" /><path d="M 120.18372546131832 94.20196356495316 l 7.669852141832926 -2.2032643208012006 a28.980037941319246,28.980037941319246 0 0,0 0.13360243153373536,0.4806390305453048 l -7.7066413439330255 2.0709139868369437" fill="#ff4d07" stroke="none" /><path d="M 120.37134235888165 94.90015583598534 l 3.1946364526761446 -0.7997581986650831 a24.29322262246257,24.29322262246257 0 0,0 0.0980604025879364,0.4065236761961504 l -3.2079296555249006 0.7446492908095266" fill="#ff0801" stroke="none" /><line stroke="#e1ed5e" stroke-width="0.3" x1="184.98032266829074" x2="189.97916517819016" y1="98.17113171792111" y2="98.06355123074" /><path d="M 185.9800911702706 98.14961562048488 a86.0,86.0 0 0,1 -9.607161424134198,41.387399972396054" fill="none" id="id28" stroke="none" /><text fill="#e1ed5e" style="font-size:6.75px; font-family:Arial;" text-anchor="middle"><textPath startOffset="21.466115282336823" xlink:href="#id28">April</textPath></text><line stroke="#e1ed5e" stroke-width="0.3" x1="174.80103733775053" x2="179.2010983576182" y1="140.37084112569926" y2="142.7455964860345" /><path d="M 175.68104954172406 140.8457921977663 a86.0,86.0 0 0,1 -30.038265399797805,32.042727171017184" fill="none" id="id29" stroke="none" /><text fill="#e1ed5e" style="font-size:6.75px; font-family:Arial;" text-anchor="middle"><textPath startOffset="22.206326154141568" xlink:href="#id29">May</textPath></text><line stroke="#e1ed5e" stroke-width="0.3" x1="143.8653032363475" x2="146.44561519142675" y1="172.8068346515853" y2="177.08958963109032" /><path d="M 144.38136562736335 173.6633856474863 a86.0,86.0 0 0,1 -40.68145358897372,12.25698825130547" fill="none" id="id30" stroke="none" /><text fill="#e1ed5e" style="font-size:6.75px; font-family:Arial;" text-anchor="middle"><textPath startOffset="21.466115282336833" xlink:href="#id30">June</textPath></text><line stroke="#e1ed5e" stroke-width="0.3" x1="102.19456741930631" x2="102.32365962044197" y1="184.97166512339345" y2="189.96999836594603" /><path d="M 102.22038585953345 185.97133177190398 a86.0,86.0 0 0,1 -42.740103519485714,-10.115201625700543" fill="none" id="id31" stroke="none" /><text fill="#e1ed5e" style="font-size:6.75px; font-family:Arial;" text-anchor="middle"><textPath startOffset="22.20632615414155" xlink:href="#id31">July</textPath></text><line stroke="#e1ed5e" stroke-width="0.3" x1="58.666819895761336" x2="56.23545636021788" y1="174.27360380694188" y2="178.64263932499728" /><path d="M 58.180547188652646 175.14741091055294 a86.0,86.0 0 0,1 -31.652253787137756,-30.449443065178592" fill="none" id="id32" stroke="none" /><text fill="#e1ed5e" style="font-size:6.75px; font-family:Arial;" text-anchor="middle"><textPath startOffset="22.20632615414155" xlink:href="#id32">August</textPath></text><line stroke="#e1ed5e" stroke-width="0.3" x1="26.63291911575756" x2="22.317208475507996" y1="142.92168965132927" y2="145.44649492493687" /><path d="M 25.769776987707644 143.4266507060508 a86.0,86.0 0 0,1 -11.730757126820373,-40.83630448921669" fill="none" id="id33" stroke="none" /><text fill="#e1ed5e" style="font-size:6.75px; font-family:Arial;" text-anchor="middle"><textPath startOffset="21.46611528233685" xlink:href="#id33">September</textPath></text><path d="M 79.10278846688536 102.07522291339032 l -11.461186714304526 1.1381670347012283 a32.517561595191545,32.517561595191545 0 0,0 -0.05051897976800925,-0.5574727320613015 l 11.479080290349613 -0.9407129140913606" fill="#ff7e0b" stroke="none" /><line stroke="#e1ed5e" stroke-width="0.3" x1="15.007084014347285" x2="10.007500721073583" y1="101.09737516637583" y2="101.16192664675087" /><path d="M 14.007167355692545 101.11028546245083 a86.0,86.0 0 0,1 10.666146001902534,-42.60595125391555" fill="none" id="id34" stroke="none" /><text fill="#e1ed5e" style="font-size:6.75px; font-family:Arial;" text-anchor="middle"><textPath startOffset="22.20632615414155" xlink:href="#id34">October</textPath></text><path d="M 79.00019446554 99.90962569577889 l -9.006112765235018 -0.038758510099507634 a30.00619616498743,30.00619616498743 0 0,0 0.00666850971078225,-0.5164834260556129 l 9.00411124840652 0.19377819421559253" fill="#ff5b08" stroke="none" /><line stroke="#e1ed5e" stroke-width="0.3" x1="26.266209847984243" x2="21.928928074336255" y1="57.711370442889674" y2="55.22380399835377" /><path d="M 25.398753493254645 57.213857153982495 a86.0,86.0 0 0,1 29.58750427330803,-30.492523968695096" fill="none" id="id35" stroke="none" /><text fill="#e1ed5e" style="font-size:6.75px; font-family:Arial;" text-anchor="middle"><textPath startOffset="21.46611528233685" xlink:href="#id35">November</textPath></text><path d="M 84.31358615837235 86.03803664274999 l -3.9188363328515394 -3.4880279096765126 a26.246295540889744,26.246295540889744 0 0,0 0.30327764396512563,-0.3348867492705184 l 3.858215048270369 3.5549674462165872" fill="#ff2503" stroke="none" /><path d="M 84.5562425177563 85.77008943001954 l -7.602804203072098 -7.005239755621302 a31.338085692428166,31.338085692428166 0 0,0 0.36894280238373117,-0.3935624577899864 l 7.48109407871791 7.135071630289339" fill="#ff6e0a" stroke="none" /><path d="M 84.80347519578584 85.50635884689758 l -10.70319132053888 -10.208137465078341 a35.790685411771655,35.790685411771655 0 0,0 0.4290378354620189,-0.44216120293406824 l 10.525889221373742 10.390862863562534" fill="#ffab0f" stroke="none" /><path d="M 85.05521093208273 85.24692304244772 l -3.4356616969247598 -3.391588946789291 a25.827695814744256,25.827695814744256 0 0,0 0.31505385866219027,-0.3137009172693083 l 3.376772038095256 3.4502257147087088" fill="#ff1f03" stroke="none" /><path d="M 85.31137513191541 84.99185889309783 l -10.968236801588537 -11.206824811070547 a36.68104399846348,36.68104399846348 0 0,0 0.4550488858756922,-0.4377566676776514 l 10.773704672100417 11.393964565510512" fill="#ffb711" stroke="none" /><path d="M 85.57189188830299 84.74124197986013 l -4.6510102408863405 -4.918776548211618 a27.769509508972288,27.769509508972288 0 0,0 0.3501498661361732,-0.3254261398625975 l 4.565652490955311 4.998107274148863" fill="#ff3b05" stroke="none" /><path d="M 85.83668400450813 84.49514656593479 l -5.640398152303454 -6.174651945142892 a29.363038799393742,29.363038799393742 0 0,0 0.3761111813252427,-0.337676332171415 l 5.53327598338224 6.270827286083585" fill="#ff5207" stroke="none" /><line stroke="#e1ed5e" stroke-width="0.3" x1="56.762969772571076" x2="54.21961505331055" y1="26.818313649435495" y2="22.513508569990535" /><path d="M 56.25429882871897 25.957352633546506 a86.0,86.0 0 0,1 42.265352541879196,-11.944610805530505" fill="none" id="id36" stroke="none" /><text fill="#e1ed5e" style="font-size:6.75px; font-family:Arial;" text-anchor="middle"><textPath startOffset="22.20632615414155" xlink:href="#id36">December</textPath></text><path d="M 92.91201910852362 80.23233633223022 l -6.807586184596349 -18.98567111661988 a41.16925723493955,41.16925723493955 0 0,0 0.6691337320777457,-0.23344762033668717 l 6.479770448455318 19.100039590128777" fill="#fff116" stroke="none" /><path d="M 94.98787191387505 79.60689891045804 l -15.036384258374849 -61.17930326862588 a84.0,84.0 0 0,0 1.407105252149864,-0.3330163514365161 l 13.98105531926245 61.42906553220327" fill="#4dd2ff" stroke="none" /><path d="M 95.33964822691252 79.52364482259891 l -1.5052218029344733 -6.613547165182143 a27.7826763730933,27.7826763730933 0 0,0 0.4672216335069508,-0.10211655251303063 l 1.3911574452740014 6.638477215791042" fill="#ff3b05" stroke="none" /></svg>