<?xml version="1.0" encoding="utf-8" ?>
<svg baseProfile="full" height="200mm" version="1.1" viewBox="0,0,200,200" width="200mm" xmlns="http://www.w3.org/2000/svg" xmlns:ev="http://www.w3.org/2001/xml-events" xmlns:xlink="http://www.w3.org/1999/xlink"><defs /><rect fill="#1a1a1a" height="200" width="200" x="0" y="0" /><rect fill="#1a1a1a" height="200" width="180" x="10" y="0" /><text alignment-baseline="middle" fill="#e1ed5e" style="dominant-baseline: central; font-size:9.0px; font-family:Arial;" text-anchor="middle" x="100.0" y="100.0">2021</text><line stroke="#e1ed5e" stroke-width="0.3" x1="100.0" x2="100.0" y1="15.0" y2="10.0" /><path d="M 100.0 14.0 a86.0,86.0 0 0,1 42.46469731375804,11.215312516191453" fill="none" id="id13" stroke="none" /><text fill="#e1ed5e" style="font-size:6.75px; font-family:Arial;" text-anchor="middle"><textPath startOffset="22.20632615414155" xlink:href="#id13">January</textPath></text><path d="M 103.95276090670814 79.375362276772 l 0.7012847382340553 -3.6591496445838994 a24.725745080589718,24.725745080589718 0 0,0 0.4173159336911417,0.08370965039396937 l -0.7641670813923224 3.6465360381127216" fill="red" stroke="none" /><path d="M 104.66035177308747 79.52364482259891 l 1.7916369209308178 -7.871979568962915 a29.07329085259611,29.07329085259611 0 0,0 0.48701405066630715,0.11526049099981507 l -1.9268746585596483 7.839973165822231" fill="red" stroke="none" /><path d="M 108.76106565485865 80.91482961587045 l 1.5640191153710112 -3.4070708378195484 a24.748904838371644,24.748904838371644 0 0,0 0.3856371861708573,0.18106182973734014 l -1.6224345128414666 3.379644025442205" fill="red" stroke="none" /><path d="M 109.08828744355905 81.06846463323043 l 5.3672666948816845 -11.180390132692082 a33.401962558127025,33.401962558127025 0 0,0 0.516185551826379,0.25329000851196554 l -5.558923513718495 11.086344964045283" fill="red" stroke="none" /><line stroke="#e1ed5e" stroke-width="0.3" x1="143.23703022742887" x2="145.7803849466894" y1="26.81831364943548" y2="22.513508569990506" /><path d="M 143.74570117128098 25.957352633546492 a86.0,86.0 0 0,1 28.547481713284135,27.462654790039103" fill="none" id="id14" stroke="none" /><text fill="#e1ed5e" style="font-size:6.75px; font-family:Arial;" text-anchor="middle"><textPath startOffset="19.985693538727396" xlink:href="#id14">February</textPath></text><path d="M 111.60114157652 82.49532879139004 l 6.09747957891517 -9.200333822849583 a32.03745440158905,32.03745440158905 0 0,0 0.45706052104193107,0.30860930408171444 l -6.2549447943636425 9.094012606469198" fill="red" stroke="none" /><line stroke="#e1ed5e" stroke-width="0.3" x1="172.23445277983987" x2="176.4835382374775" y1="55.19839476539836" y2="52.563006222186495" /><path d="M 173.08426987136738 54.67131705675599 a86.0,86.0 0 0,1 12.851231095245387,41.99856678651699" fill="none" id="id15" stroke="none" /><text fill="#e1ed5e" style="font-size:6.75px; font-family:Arial;" text-anchor="middle"><textPath startOffset="22.20632615414155" xlink:href="#id15">March</textPath></text><line stroke="#e1ed5e" stroke-width="0.3" x1="184.98032266829074" x2="189.97916517819016" y1="98.17113171792111" y2="98.06355123074" /><path d="M 185.9800911702706 98.14961562048488 a86.0,86.0 0 0,1 -9.607161424134198,41.387399972396054" fill="none" id="id16" stroke="none" /><text fill="#e1ed5e" style="font-size:6.75px; font-family:Arial;" text-anchor="middle"><textPath startOffset="21.466115282336823" xlink:href="#id16">April</textPath></text><path d="M 120.99824983174949 100.27111621757518 l 62.994749495248485 0.8133486527255557 a84.0,84.0 0 0,0 -0.03111174925997018,1.4456407368395405 l -62.97141568330351 -1.8975792053552112" fill="red" stroke="none" /><path d="M 120.9904718944345 100.63252640178507 l 11.020145583983547 0.3320808159264366 a32.025147906513475,32.025147906513475 0 0,0 -0.021346845991235416,0.5508672424559254 l -11.012796605141109 -0.5217253053963683" fill="red" stroke="none" /><path d="M 120.5718875245553 104.21870165774334 l 4.454212713828209 0.9134307455909892 a25.546907369522692,25.546907369522692 0 0,0 -0.0920491097015497,0.43002279579911906 l -4.437829565402216 -0.9899673608062773" fill="red" stroke="none" /><path d="M 120.49622156327973 104.57218783832717 l 10.188028827292888 2.2726911570925323 a31.43844128600039,31.43844128600039 0 0,0 -0.12236954279729595,0.5271647876622679 l -10.14739871856504 -2.4477246021033654" fill="red" stroke="none" /><line stroke="#e1ed5e" stroke-width="0.3" x1="174.80103733775053" x2="179.2010983576182" y1="140.37084112569926" y2="142.7455964860345" /><path d="M 175.68104954172406 140.8457921977663 a86.0,86.0 0 0,1 -30.038265399797805,32.042727171017184" fill="none" id="id17" stroke="none" /><text fill="#e1ed5e" style="font-size:6.75px; font-family:Arial;" text-anchor="middle"><textPath startOffset="22.206326154141568" xlink:href="#id17">May</textPath></text><path d="M 113.48314897796784 116.09983520530334 l 4.522066757172888 5.399668111420435 a28.043117453927547,28.043117453927547 0 0,0 -0.3727462747676631,0.3067448076966006 l -4.4284503538605335 -5.476708037974214" fill="red" stroke="none" /><line stroke="#e1ed5e" stroke-width="0.3" x1="143.8653032363475" x2="146.44561519142675" y1="172.8068346515853" y2="177.08958963109032" /><path d="M 144.38136562736335 173.6633856474863 a86.0,86.0 0 0,1 -40.68145358897372,12.25698825130547" fill="none" id="id18" stroke="none" /><text fill="#e1ed5e" style="font-size:6.75px; font-family:Arial;" text-anchor="middle"><textPath startOffset="21.466115282336833" xlink:href="#id18">June</textPath></text><line stroke="#e1ed5e" stroke-width="0.3" x1="102.19456741930631" x2="102.32365962044197" y1="184.97166512339345" y2="189.96999836594603" /><path d="M 102.22038585953345 185.97133177190398 a86.0,86.0 0 0,1 -42.740103519485714,-10.115201625700543" fill="none" id="id19" stroke="none" /><text fill="#e1ed5e" style="font-size:6.75px; font-family:Arial;" text-anchor="middle"><textPath startOffset="22.20632615414155" xlink:href="#id19">July</textPath></text><path d="M 96.93821686468263 120.77559828337769 l -1.302754728670739 8.839786395200901 a29.935266834060016,29.935266834060016 0 0,0 -0.5091335107826498,-0.07951618352475781 l 1.454724103061906 -8.816051904329036" fill="red" stroke="none" /><path d="M 91.7346041902142 119.30500536409082 l -3.3183852812099293 7.750559940279245 a29.431065191445985,29.431065191445985 0 0,0 -0.4640008194137101,-0.20340432350383864 l 3.451306775281383 -7.692291063480954" fill="red" stroke="none" /><line stroke="#e1ed5e" stroke-width="0.3" x1="58.666819895761336" x2="56.23545636021788" y1="174.27360380694188" y2="178.64263932499728" /><path d="M 58.180547188652646 175.14741091055294 a86.0,86.0 0 0,1 -31.652253787137756,-30.449443065178592" fill="none" id="id20" stroke="none" /><text fill="#e1ed5e" style="font-size:6.75px; font-family:Arial;" text-anchor="middle"><textPath startOffset="22.20632615414155" xlink:href="#id20">August</textPath></text><line stroke="#e1ed5e" stroke-width="0.3" x1="26.63291911575756" x2="22.317208475507996" y1="142.92168965132927" y2="145.44649492493687" /><path d="M 25.769776987707644 143.4266507060508 a86.0,86.0 0 0,1 -11.730757126820373,-40.83630448921669" fill="none" id="id21" stroke="none" /><text fill="#e1ed5e" style="font-size:6.75px; font-family:Arial;" text-anchor="middle"><textPath startOffset="21.46611528233685" xlink:href="#id21">September</textPath></text><path d="M 79.18660465613746 102.79330883721812 l -22.514148749393165 3.021562297987483 a43.71600168670581,43.71600168670581 0 0,0 -0.09367400465066682,-0.7466739837410987 l 22.56282426329068 -2.6335705599589754" fill="red" stroke="none" /><path d="M 79.1416061653843 102.43462659150553 l -4.480477206834833 0.5229687883393777 a25.5108948507523,25.5108948507523 0 0,0 -0.04715591546451766,-0.4366052114938548 l 4.4888154238004025 -0.4457672549607408" fill="red" stroke="none" /><path d="M 79.07016306316243 101.71520430193888 l -8.445489613929936 0.6921095544847331 a29.47380141697972,29.47380141697972 0 0,0 -0.03708567917526635,-0.5060046276371919 l 8.456151851769537 -0.5466317903507806" fill="red" stroke="none" /><path d="M 79.04373962182676 101.35467743843564 l -13.421366264278777 0.8675985955078405 a34.44937915752425,34.44937915752425 0 0,0 -0.03315941249678935,-0.5920835853635703 l 13.434312027663099 -0.6364432938088327" fill="red" stroke="none" /><path d="M 79.0235259727143 100.99374915477108 l -6.108553566318616 0.28938943387276567 a27.115404558736984,27.115404558736984 0 0,0 -0.018074182414244893,-0.46641433728743786 l 6.112629881584062 -0.18419784957133103" fill="red" stroke="none" /><line stroke="#e1ed5e" stroke-width="0.3" x1="15.007084014347285" x2="10.007500721073583" y1="101.09737516637583" y2="101.16192664675087" /><path d="M 14.007167355692545 101.11028546245083 a86.0,86.0 0 0,1 10.666146001902534,-42.60595125391555" fill="none" id="id22" stroke="none" /><text fill="#e1ed5e" style="font-size:6.75px; font-family:Arial;" text-anchor="middle"><textPath startOffset="22.20632615414155" xlink:href="#id22">October</textPath></text><path d="M 79.00175016825051 100.2711162175752 l -5.599665613476184 0.0722993665174957 a26.600132336038715,26.600132336038715 0 0,0 -0.0019705665702263796,-0.4578902722859963 l 5.600080477335913 0.02410038397217598" fill="red" stroke="none" /><path d="M 79.00019446554 99.90962569577889 l -5.762530008503725 -0.024799498224745926 a26.762583371545972,26.762583371545972 0 0,0 0.005947656481264247,-0.46065254902131414 l 5.761249344904745 0.12398830530653204" fill="red" stroke="none" /><path d="M 79.00486145842228 99.54816195383935 l -7.2761142407261525 -0.1565898331968959 a28.277799036793922,28.277799036793922 0 0,0 0.01466177695402276,-0.4865529979576373 l 7.272340769316485 0.2818129785795276" fill="red" stroke="none" /><path d="M 79.26566170972629 96.67025291283419 l -7.054173513549974 -1.1328364271997784 a28.144556132473223,28.144556132473223 0 0,0 0.08093320729426902,-0.47767237081697017 l 7.0336284447354815 1.2540945863325765" fill="red" stroke="none" /><path d="M 80.2630227832202 92.82701384747504 l -23.516475434747928 -8.546564694122996 a46.02135857510404,46.02135857510404 0 0,0 0.2769946930864012,-0.7422080643744787 l 23.3658761531599 8.950095895526815" fill="red" stroke="none" /><path d="M 80.38941819471856 92.48833698450439 l -5.864727650358951 -2.2464329832015206 a27.280246138560216,27.280246138560216 0 0,0 0.17174402382536905,-0.43706980761938535 l 5.82519007665189 2.3470517957166694" fill="red" stroke="none" /><path d="M 80.52162464483688 92.15188598940014 l -20.65978494726768 -8.32412071049103 a43.273699730178954,43.273699730178954 0 0,0 0.2843253376649146,-0.68851635763907 l 20.51343792271657 8.678511638583412" fill="red" stroke="none" /><path d="M 80.65960295795068 91.81776055985345 l -18.82779417465931 -7.965375257391048 a41.443410588118425,41.443410588118425 0 0,0 0.2836096722531823,-0.6546102258727462 l 18.687893792563447 8.288284627850393" fill="red" stroke="none" /><path d="M 80.803312248108 91.48605970444005 l -3.42163561682025 -1.5175326978946067 a24.74305968206121,24.74305968206121 0 0,0 0.17602646608273592,-0.38785098482103125 l 3.3950068337741626 1.5762056915577087" fill="red" stroke="none" /><path d="M 80.95270993114464 91.15688171328213 l -3.605814353452003 -1.674077663134859 a24.975478986709344,24.975478986709344 0 0,0 0.18439254151270468,-0.3883777183866882 l 3.576463618097547 1.7358977971620795" fill="red" stroke="none" /><path d="M 81.10775173730289 90.83032412892265 l -11.588434208438459 -5.624644778488375 a33.88132121668749,33.88132121668749 0 0,0 0.2591759524461876,-0.5224829050005211 l 11.489898243038859 5.823287271987858" fill="red" stroke="none" /><path d="M 81.26839172434947 90.50648371742162 l -12.041240997732203 -6.102717705399539 a34.49943140125775,34.49943140125775 0 0,0 0.27302286001089465,-0.5273932641100988 l 11.934408704561193 6.309083691769974" fill="red" stroke="none" /><path d="M 81.6062741919709 89.86733742301443 l -9.592597081120669 -5.284331759340674 a31.951807198061026,31.951807198061026 0 0,0 0.2695246900968582,-0.4794543493092131 l 9.50021474973138 5.448669618584671" fill="red" stroke="none" /><line stroke="#e1ed5e" stroke-width="0.3" x1="26.266209847984243" x2="21.928928074336255" y1="57.711370442889674" y2="55.22380399835377" /><path d="M 25.398753493254645 57.213857153982495 a86.0,86.0 0 0,1 29.58750427330803,-30.492523968695096" fill="none" id="id23" stroke="none" /><text fill="#e1ed5e" style="font-size:6.75px; font-family:Arial;" text-anchor="middle"><textPath startOffset="21.46611528233685" xlink:href="#id23">November</textPath></text><path d="M 81.78341655067845 89.55222093294921 l -7.136468586680622 -4.09298743202937 a29.226890664608938,29.226890664608938 0 0,0 0.2540517207684731,-0.43425674286856353 l 7.064957191441824 4.215223587251826" fill="red" stroke="none" /><path d="M 82.15384107792192 88.93136811851018 l -3.509922018438408 -2.1769409834610283 a25.13020878661007,25.13020878661007 0 0,0 0.23116489705477603,-0.3656473527705522 l 3.4719295251376696 2.237035983945796" fill="red" stroke="none" /><path d="M 82.34701348167596 88.62581576622439 l -12.708246099288088 -8.188185736811286 a36.11773477014962,36.11773477014962 0 0,0 0.34123238579275794,-0.5197203341707116 l 12.56541707813741 8.405724134959666" fill="red" stroke="none" /><path d="M 82.54541684631803 88.32363383020206 l -6.704740520005428 -4.485183329545772 a29.066623515464073,29.066623515464073 0 0,0 0.281773972065055,-0.4134685349235259 l 6.626542082271633 4.599929887739713" fill="red" stroke="none" /><path d="M 82.7489923806493 88.02491185347247 l -3.117303502099371 -2.163930654998107 a24.794756514434297,24.794756514434297 0 0,0 0.24639775140942938,-0.34851214541841974 l 3.0795931308860633 2.217269300748313" fill="red" stroke="none" /><line stroke="#e1ed5e" stroke-width="0.3" x1="56.762969772571076" x2="54.21961505331055" y1="26.818313649435495" y2="22.513508569990535" /><path d="M 56.25429882871897 25.957352633546506 a86.0,86.0 0 0,1 42.265352541879196,-11.944610805530505" fill="none" id="id24" stroke="none" /><text fill="#e1ed5e" style="font-size:6.75px; font-family:Arial;" text-anchor="middle"><textPath startOffset="22.20632615414155" xlink:href="#id24">December</textPath></text></svg>