<?xml version="1.0" encoding="utf-8" ?>
<svg baseProfile="full" height="200mm" version="1.1" viewBox="0,0,200,200" width="200mm" xmlns="http://www.w3.org/2000/svg" xmlns:ev="http://www.w3.org/2001/xml-events" xmlns:xlink="http://www.w3.org/1999/xlink"><defs /><rect fill="#1a1a1a" height="200" width="200" x="0" y="0" /><rect fill="#1a1a1a" height="200" width="180" x="10" y="0" /><text alignment-baseline="middle" fill="#e1ed5e" style="dominant-baseline: central; font-size:9.0px; font-family:Arial;" text-anchor="middle" x="100.0" y="100.0">2025</text><line stroke="#e1ed5e" stroke-width="0.3" x1="100.0" x2="100.0" y1="15.0" y2="10.0" /><path d="M 100.0 14.0 a86.0,86.0 0 0,1 42.46469731375804,11.215312516191453" fill="none" id="id61" stroke="none" /><text fill="#e1ed5e" style="font-size:6.75px; font-family:Arial;" text-anchor="middle"><textPath startOffset="22.20632615414155" xlink:href="#id61">January</textPath></text><path d="M 110.36928655335952 81.73862282372117 l 1.3236511822369381 -2.331085496024293 a23.680673803731455,23.680673803731455 0 0,0 0.3527329592014239,0.20432569730659533 l -1.3635808739036903 2.307955641327648" fill="#ff0901" stroke="none" /><line stroke="#e1ed5e" stroke-width="0.3" x1="143.23703022742887" x2="145.7803849466894" y1="26.81831364943548" y2="22.513508569990506" /><path d="M 143.74570117128098 25.957352633546492 a86.0,86.0 0 0,1 28.547481713284135,27.462654790039103" fill="none" id="id62" stroke="none" /><text fill="#e1ed5e" style="font-size:6.75px; font-family:Arial;" text-anchor="middle"><textPath startOffset="19.985693538727396" xlink:href="#id62">February</textPath></text><path d="M 110.68208982089419 81.91981866633111 l 1.056415894610495 -1.7880575110843724 a23.076815881423034,23.076815881423034 0 0,0 0.34025988513332556,0.2050027735989884 l -1.087037845961458 1.7696081280267695" fill="#ff0000" stroke="none" /><path d="M 114.16331599549186 84.49514656593476 l 13.481095298101334 -14.758013363131802 a40.9884688974135,40.9884688974135 0 0,0 0.516829686635963,0.48033686759408084 l -13.733132868532143 14.52377190946308" fill="#fff517" stroke="none" /><path d="M 114.68862486808459 84.99185889309783 l 12.866766222892462 -13.146652242598535 a39.39532925017618,39.39532925017618 0 0,0 0.4805558568817264,0.4784921973121279 l -13.091157879941512 12.923224194636287" fill="#ffe115" stroke="none" /><path d="M 114.94478906791727 85.2469230424477 l 27.81399441470196 -27.45719583141723 a60.083447752544394,60.083447752544394 0 0,0 0.7202452837734543,0.7422760762763824 l -28.282503962178524 26.974355559590734" fill="#34ff2f" stroke="none" /><path d="M 117.2510076193507 88.02491185347247 l 4.850958706445935 -3.3673776852138264 a26.90517000995904,26.90517000995904 0 0,0 0.2608206838595706,0.38272216998194014 l -4.908203855974239 3.2833774919614798" fill="#ff3805" stroke="none" /><path d="M 117.65298651832404 88.62581576622439 l 9.64264254659706 -6.212953978727155 a32.4708915269575,32.4708915269575 0 0,0 0.29868953182377195,0.47245510889898645 l -9.748159674666786 6.046051222113962" fill="#ff860c" stroke="none" /><line stroke="#e1ed5e" stroke-width="0.3" x1="172.23445277983987" x2="176.4835382374775" y1="55.19839476539836" y2="52.563006222186495" /><path d="M 173.08426987136738 54.67131705675599 a86.0,86.0 0 0,1 12.851231095245387,41.99856678651699" fill="none" id="id63" stroke="none" /><text fill="#e1ed5e" style="font-size:6.75px; font-family:Arial;" text-anchor="middle"><textPath startOffset="22.20632615414155" xlink:href="#id63">March</textPath></text><path d="M 117.84615892207809 88.93136811851018 l 5.684954158770608 -3.525950044562825 a27.689620878949405,27.689620878949405 0 0,0 0.247735348314215,0.40721177500464933 l -5.744805305371047 3.4275704963510942" fill="#ff4406" stroke="none" /><path d="M 119.47837535516314 92.15188598940014 l 2.544424399097421 -1.0251847195343946 a23.74319143187075,23.74319143187075 0 0,0 0.14947633588985038,0.3804009706763238 l -2.561694284868972 0.9812347439622864" fill="#ff0a01" stroke="none" /><path d="M 119.7369772167798 92.82701384747503 l 4.182133449471173 -1.5199077848437927 a25.449759528740223,25.449759528740223 0 0,0 0.14609000501527747,0.4130161168698358 l -4.20767653529626 1.4476940415473425" fill="#ff2303" stroke="none" /><path d="M 120.08093135843002 93.85539295169968 l 5.147274435200042 -1.5750254910755774 a26.382856064284255,26.382856064284255 0 0,0 0.129142953369485,0.4354058383608108 l -5.173623285681229 1.486190265968237" fill="#ff3104" stroke="none" /><path d="M 120.73433829027371 96.67025291283417 l 2.4348621193780424 -0.3910168212820468 a23.466059142621614,23.466059142621614 0 0,0 0.06061406727105038,0.39937096982061243 l -2.4412320800883927 0.34904673906935224" fill="#ff0601" stroke="none" /><path d="M 120.78858239683441 97.02765380044208 l 2.9406202236109573 -0.4204491282351285 a23.970526008797673,23.970526008797673 0 0,0 0.05488565691386616,0.40896189523876736 l -2.9474218795826594 0.3697688909316968" fill="#ff0e01" stroke="none" /><line stroke="#e1ed5e" stroke-width="0.3" x1="184.98032266829074" x2="189.97916517819016" y1="98.17113171792111" y2="98.06355123074" /><path d="M 185.9800911702706 98.14961562048488 a86.0,86.0 0 0,1 -9.607161424134198,41.387399972396054" fill="none" id="id64" stroke="none" /><text fill="#e1ed5e" style="font-size:6.75px; font-family:Arial;" text-anchor="middle"><textPath startOffset="21.466115282336823" xlink:href="#id64">April</textPath></text><path d="M 118.64920377521936 109.65438752849418 l 4.178316544615462 2.163046080929101 a25.705007704056396,25.705007704056396 0 0,0 -0.20679983703143467,0.39118735711007924 l -4.140464199359134 -2.2346484531253146" fill="#ff2703" stroke="none" /><line stroke="#e1ed5e" stroke-width="0.3" x1="174.80103733775053" x2="179.2010983576182" y1="140.37084112569926" y2="142.7455964860345" /><path d="M 175.68104954172406 140.8457921977663 a86.0,86.0 0 0,1 -30.038265399797805,32.042727171017184" fill="none" id="id65" stroke="none" /><text fill="#e1ed5e" style="font-size:6.75px; font-family:Arial;" text-anchor="middle"><textPath startOffset="22.206326154141568" xlink:href="#id65">May</textPath></text><path d="M 118.48025628344425 109.97397251340804 l 10.877203831620221 5.870531792165018 a33.360287485225975,33.360287485225975 0 0,0 -0.27708672023347547,0.502992882502252 l -10.774540701935237 -6.056895193065074" fill="#ff920d" stroke="none" /><path d="M 117.75023020441432 111.22182372390056 l 47.02286397548106 29.728194195170037 a76.63196263446343,76.63196263446343 0 0,0 -0.7144840758904544,1.108895152392369 l -46.50417503621355 -30.53321094748386" fill="#44ffe5" stroke="none" /><path d="M 117.55443506779139 111.5257021239791 l 18.140238036839104 11.910322335254065 a42.70078372231833,42.70078372231833 0 0,0 -0.40870118689116264,0.610952821097058 l -17.93253374453722 -12.220812070556931" fill="#f4ff19" stroke="none" /><line stroke="#e1ed5e" stroke-width="0.3" x1="143.8653032363475" x2="146.44561519142675" y1="172.8068346515853" y2="177.08958963109032" /><path d="M 144.38136562736335 173.6633856474863 a86.0,86.0 0 0,1 -40.68145358897372,12.25698825130547" fill="none" id="id66" stroke="none" /><text fill="#e1ed5e" style="font-size:6.75px; font-family:Arial;" text-anchor="middle"><textPath startOffset="21.466115282336833" xlink:href="#id66">June</textPath></text><path d="M 107.59598834532513 119.57807347666477 l 0.8681498804215965 2.2375892872600573 a23.400102088107296,23.400102088107296 0 0,0 -0.3767748263447025,0.14246399998323803 l -0.8295048333166192 -2.2522015373499262" fill="#ff0500" stroke="none" /><path d="M 106.57524785965236 119.94407469862006 l 0.9703323026540606 2.9432167942091474 a24.099043380672285,24.099043380672285 0 0,0 -0.39508505903299673,0.12649375952741654 l -0.9195258985301235 -2.959483400396271" fill="#ff1001" stroke="none" /><path d="M 105.18746579009965 120.34920634021253 l 0.5066562050150362 1.9874929448357732 a23.05105551262081,23.05105551262081 0 0,0 -0.3853332057574967,0.09470552686487461 l -0.4723697145143284 -1.9959197300146776" fill="#ff0000" stroke="none" /><path d="M 104.83641907484287 120.43548508189849 l 5.545003408200292 23.42949042955608 a45.07671249538883,45.07671249538883 0 0,0 -0.7566015660112173,0.17220005314093811 l -5.140881692796213 -23.5214672162747" fill="#d7ff1c" stroke="none" /><line stroke="#e1ed5e" stroke-width="0.3" x1="102.19456741930631" x2="102.32365962044197" y1="184.97166512339345" y2="189.96999836594603" /><path d="M 102.22038585953345 185.97133177190398 a86.0,86.0 0 0,1 -42.740103519485714,-10.115201625700543" fill="none" id="id67" stroke="none" /><text fill="#e1ed5e" style="font-size:6.75px; font-family:Arial;" text-anchor="middle"><textPath startOffset="22.20632615414155" xlink:href="#id67">July</textPath></text><line stroke="#e1ed5e" stroke-width="0.3" x1="58.666819895761336" x2="56.23545636021788" y1="174.27360380694188" y2="178.64263932499728" /><path d="M 58.180547188652646 175.14741091055294 a86.0,86.0 0 0,1 -31.652253787137756,-30.449443065178592" fill="none" id="id68" stroke="none" /><text fill="#e1ed5e" style="font-size:6.75px; font-family:Arial;" text-anchor="middle"><textPath startOffset="22.20632615414155" xlink:href="#id68">August</textPath></text><path d="M 82.6465618267979 111.8261652097733 l -5.284760844253799 3.6015027232355115 a27.39527317996901,27.39527317996901 0 0,0 -0.26220784931421315,-0.3919651578965716 l 5.345971798978742 -3.5100006511331188" fill="#ff3f05" stroke="none" /><line stroke="#e1ed5e" stroke-width="0.3" x1="26.63291911575756" x2="22.317208475507996" y1="142.92168965132927" y2="145.44649492493687" /><path d="M 25.769776987707644 143.4266507060508 a86.0,86.0 0 0,1 -11.730757126820373,-40.83630448921669" fill="none" id="id69" stroke="none" /><text fill="#e1ed5e" style="font-size:6.75px; font-family:Arial;" text-anchor="middle"><textPath startOffset="21.46611528233685" xlink:href="#id69">September</textPath></text><line stroke="#e1ed5e" stroke-width="0.3" x1="15.007084014347285" x2="10.007500721073583" y1="101.09737516637583" y2="101.16192664675087" /><path d="M 14.007167355692545 101.11028546245083 a86.0,86.0 0 0,1 10.666146001902534,-42.60595125391555" fill="none" id="id70" stroke="none" /><text fill="#e1ed5e" style="font-size:6.75px; font-family:Arial;" text-anchor="middle"><textPath startOffset="22.20632615414155" xlink:href="#id70">October</textPath></text><line stroke="#e1ed5e" stroke-width="0.3" x1="26.266209847984243" x2="21.928928074336255" y1="57.711370442889674" y2="55.22380399835377" /><path d="M 25.398753493254645 57.213857153982495 a86.0,86.0 0 0,1 29.58750427330803,-30.492523968695096" fill="none" id="id71" stroke="none" /><text fill="#e1ed5e" style="font-size:6.75px; font-family:Arial;" text-anchor="middle"><textPath startOffset="21.46611528233685" xlink:href="#id71">November</textPath></text><path d="M 83.17141714833178 87.43820079747576 l -50.48574855500465 -37.6853976075727 a84.0,84.0 0 0,0 0.8748962391035646,-1.1512608964758937 l 49.82957637567698 38.54884327992962" fill="#4dd2ff" stroke="none" /><path d="M 85.31137513191541 84.99185889309783 l -3.7500726467285204 -3.8316465937886623 a26.361395385105794,26.361395385105794 0 0,0 0.3270278675989563,-0.3146005495263527 l 3.6835615355171365 3.895630230077329" fill="#ff3004" stroke="none" /><path d="M 85.83668400450813 84.49514656593479 l -39.89393292658842 -43.67265286830173 a80.15087905438362,80.15087905438362 0 0,0 1.0266526571501615,-0.921738892364157 l 39.13626928184228 44.35289076943516" fill="#48f6ff" stroke="none" /><line stroke="#e1ed5e" stroke-width="0.3" x1="56.762969772571076" x2="54.21961505331055" y1="26.818313649435495" y2="22.513508569990535" /><path d="M 56.25429882871897 25.957352633546506 a86.0,86.0 0 0,1 42.265352541879196,-11.944610805530505" fill="none" id="id72" stroke="none" /><text fill="#e1ed5e" style="font-size:6.75px; font-family:Arial;" text-anchor="middle"><textPath startOffset="22.20632615414155" xlink:href="#id72">December</textPath></text></svg>